<svg width="243" height="48" viewBox="0 0 243 48" fill="none" xmlns="http://www.w3.org/2000/svg">
<path d="M7.12475 26.8728C8.67509 26.8728 10.0699 27.1848 11.2412 27.6552C11.4307 27.7488 11.4307 27.936 11.3675 28.0608L10.6701 29.8128C10.5754 29.9688 10.4174 30 10.2279 29.9376C9.02502 29.532 8.26443 29.4384 7.34589 29.4384C4.9086 29.4384 3.16629 31.0008 3.16629 34.2864C3.16629 37.788 5.2245 39.1344 7.34589 39.1344C8.48556 39.1344 9.21456 38.9472 10.3858 38.508C10.5438 38.4456 10.7649 38.4768 10.8281 38.6328L11.5255 40.3536C11.5887 40.5408 11.5571 40.6968 11.3991 40.7904C10.2595 41.3544 8.74071 41.6976 7.06158 41.6976C2.85039 41.6976 0 39.0384 0 34.2864C0.00243 29.6856 2.75561 26.8728 7.12475 26.8728Z" fill="#0000FF"/>
<path d="M25.7122 39.192C27.231 39.192 28.4046 38.8801 29.5127 38.3785C29.7023 38.3161 29.8602 38.3784 29.9234 38.5032L30.5892 40.2552C30.6524 40.4112 30.6208 40.5361 30.4313 40.5985C28.9757 41.3497 27.6125 41.6929 25.7146 41.6929C21.4403 41.6929 18.9082 39.0984 18.9082 34.4688C18.9082 29.7168 21.4403 26.8704 25.3671 26.8704C29.1361 26.8704 31.2866 29.2776 31.2866 33.9696V34.908C31.2866 35.1264 31.1919 35.2512 30.9391 35.2512H22.0065C22.1037 37.8168 23.5592 39.192 25.7122 39.192ZM25.3331 29.1552C23.8144 29.1552 22.1984 30.2808 21.9773 33.1896H28.2783C28.2759 30.0936 26.8203 29.1552 25.3331 29.1552Z" fill="#0000FF"/>
<path d="M39.1704 38.6617C39.2335 38.4745 39.3915 38.4433 39.581 38.5057C41.2602 39.0049 42.9053 39.2569 44.3608 39.2569C46.3243 39.2569 47.5903 38.6929 47.5903 37.7257C47.5903 36.5377 46.0084 35.9736 44.1713 35.3808C41.7656 34.5672 38.9784 33.66 38.9784 30.9096C38.9784 28.0944 41.9867 26.8752 45.4057 26.8752C47.1481 26.8752 48.8563 27.0936 50.154 27.5016C50.3435 27.564 50.4067 27.72 50.3435 27.9072L49.8381 29.628C49.7749 29.8464 49.6169 29.9088 49.3958 29.8464C48.572 29.628 46.7034 29.2824 45.0898 29.2824C43.5079 29.2824 42.0499 29.6568 42.0499 30.8137C42.0499 31.8769 43.6003 32.4721 45.4057 33.1273C47.8114 34.0033 50.6303 35.0041 50.6303 37.5049C50.6303 40.6009 47.6851 41.6953 44.3924 41.6953C42.2394 41.6953 40.118 41.2897 38.7888 40.7881C38.5993 40.7257 38.5993 40.6009 38.6309 40.4449L39.1704 38.6617Z" fill="#0000FF"/>
<path d="M66.8759 27.3096C67.0655 27.1224 67.1603 27.0912 67.413 27.0912H70.295C70.5161 27.0912 70.674 27.372 70.4845 27.5592L64.4046 33.7824L70.9899 41.0064C71.1479 41.1936 71.0531 41.4744 70.8004 41.4744H67.7289C67.5077 41.4744 67.3814 41.412 67.1894 41.2248L61.2699 34.5648V41.1624C61.2699 41.3496 61.1752 41.4744 60.954 41.4744H58.5799C58.3588 41.4744 58.2324 41.3496 58.2324 41.1624V19.2096C58.2324 19.0224 58.3588 18.8976 58.5799 18.8976H60.954C61.1752 18.8976 61.2699 19.0224 61.2699 19.2096V33.2184L66.8759 27.3096Z" fill="#0000FF"/>
<path d="M83.4403 41.6952C78.6921 41.6952 77.0762 38.7552 77.0762 34.284C77.0762 29.7816 78.6921 26.8728 83.4403 26.8728C88.1886 26.8728 89.7729 29.7816 89.7729 34.284C89.7729 38.7864 88.1886 41.6952 83.4403 41.6952ZM83.4403 29.1552C81.3505 29.1552 80.2425 30.8136 80.2425 34.284C80.2425 37.7856 81.3505 39.444 83.4403 39.444C85.5617 39.444 86.6382 37.7856 86.6382 34.284C86.6382 30.78 85.5617 29.1552 83.4403 29.1552Z" fill="#0000FF"/>
<path d="M99.4824 39.5064C99.4824 38.1312 100.275 37.2864 101.699 37.2864C103.123 37.2864 103.915 38.1312 103.915 39.5064C103.915 40.9128 103.123 41.6952 101.699 41.6952C100.275 41.6952 99.4824 40.9128 99.4824 39.5064Z" fill="#0000FF"/>
<path d="M123.179 19.212C123.179 19.0248 123.306 18.9 123.495 18.9H125.901C126.091 18.9 126.217 19.0248 126.217 19.212V41.1649C126.217 41.3521 126.091 41.4769 125.901 41.4769H124.19C124.032 41.4769 123.938 41.4145 123.906 41.2273L123.59 40.1641C122.008 41.2585 120.74 41.6953 119.379 41.6953C115.865 41.6953 113.965 39.0697 113.965 34.3776C113.965 29.592 116.055 26.8728 119.726 26.8728C121.024 26.8728 122.132 27.3408 123.177 28.092L123.179 19.212ZM120.455 39.2233C121.342 39.2233 122.387 38.8801 123.179 38.3785V30.2473C122.356 29.7169 121.374 29.3088 120.455 29.3088C118.524 29.3088 117.1 30.8736 117.1 34.4064C117.1 37.9417 118.463 39.2233 120.455 39.2233Z" fill="#0000FF"/>
<path d="M134.18 29.592C133.99 29.592 133.864 29.4672 133.864 29.28V27.4344C133.864 27.216 133.99 27.0912 134.18 27.0912H142.221C142.442 27.0912 142.568 27.216 142.568 27.4344V38.8176C142.568 38.9736 142.6 39.036 142.758 39.036H147.095C147.285 39.036 147.411 39.1296 147.411 39.348V41.1624C147.411 41.3496 147.285 41.4744 147.095 41.4744H134.177C133.988 41.4744 133.861 41.3496 133.861 41.1624V39.348C133.861 39.1296 133.988 39.036 134.177 39.036H139.307C139.433 39.036 139.496 38.9736 139.496 38.8176V29.592H134.18Z" fill="#0000FF"/>
<path d="M173.762 29.592C173.572 29.592 173.446 29.4672 173.446 29.28V27.4344C173.446 27.216 173.572 27.0912 173.762 27.0912H181.803C182.024 27.0912 182.15 27.216 182.15 27.4344V38.8176C182.15 38.9736 182.182 39.036 182.34 39.036H186.677C186.867 39.036 186.993 39.1296 186.993 39.348V41.1624C186.993 41.3496 186.867 41.4744 186.677 41.4744H173.759C173.57 41.4744 173.443 41.3496 173.443 41.1624V39.348C173.443 39.1296 173.57 39.036 173.759 39.036H178.889C179.015 39.036 179.079 38.9736 179.079 38.8176V29.592H173.762Z" fill="#0000FF"/>
<path d="M221.491 32.1264C221.491 30.4056 220.635 29.5944 218.864 29.5944H214.558C214.368 29.5944 214.242 29.4696 214.242 29.3136V27.4368C214.242 27.2184 214.368 27.0936 214.558 27.0936H219.338C222.82 27.0936 224.53 28.8144 224.53 32.3784V41.1648C224.53 41.352 224.436 41.4768 224.246 41.4768H222.535C222.377 41.4768 222.314 41.4144 222.251 41.2584L221.935 40.1952C219.94 41.2272 218.769 41.6952 216.837 41.6952C214.4 41.6952 212.91 40.068 212.91 37.692C212.91 34.4088 214.937 33.096 219.022 33.096H221.491V32.1264ZM219.019 35.16C216.929 35.16 215.979 35.9736 215.979 37.4424C215.979 38.5992 216.55 39.4128 217.69 39.4128C218.798 39.4128 220.127 39.0072 221.488 38.4744V35.16H219.019Z" fill="#0000FF"/>
<path d="M229.769 21.4008C229.579 21.4008 229.453 21.276 229.453 21.0888V19.212C229.453 19.0248 229.579 18.9 229.769 18.9H237.431C237.62 18.9 237.747 18.9936 237.747 19.212V36.4417C237.747 38.0689 238.57 38.9737 240.247 38.9737H242.684C242.874 38.9737 243 39.0985 243 39.2857V41.1625C243 41.3497 242.874 41.4745 242.684 41.4745H239.771C236.541 41.4745 234.673 39.5977 234.673 36.4705V21.3984H229.769V21.4008Z" fill="#0000FF"/>
<path d="M165.096 27.0912H163.449C163.228 27.0912 163.164 27.1848 163.133 27.3096L162.754 28.404C161.551 27.4032 160.222 26.8728 158.827 26.8728C155.218 26.8728 153.16 29.4984 153.16 34.3776C153.16 39.288 155.124 41.6952 158.511 41.6952C159.809 41.6952 161.267 41.196 162.375 40.3824V40.692V43.092C162.375 44.6232 161.583 45.4992 159.969 45.4992H155.439C155.25 45.4992 155.124 45.624 155.124 45.8112V47.688C155.124 47.8752 155.25 48 155.439 48H160.727C163.704 48 165.412 46.3104 165.412 43.3728V27.4368C165.412 27.216 165.286 27.0912 165.096 27.0912ZM159.556 39.2232C157.592 39.2232 156.326 37.9728 156.326 34.4064C156.326 30.936 157.592 29.3088 159.588 29.3088C160.474 29.3088 161.583 29.7144 162.375 30.2472V38.3784C161.612 38.88 160.472 39.2232 159.556 39.2232Z" fill="#0000FF"/>
<path d="M1.89091 0.530399C1.70137 0.343199 1.82773 0 2.11204 0H4.73887C4.92841 0 5.02317 0.0311998 5.18112 0.1872L11.6085 6.31681L5.18112 12.4464C5.02317 12.6024 4.92841 12.6336 4.73887 12.6336H2.11204C1.82773 12.6336 1.70137 12.2904 1.89091 12.1032L8.09712 6.31922L1.89091 0.530399Z" fill="#0000FF"/>
<path d="M205.105 29.592C205.294 29.592 205.421 29.4672 205.421 29.3112V27.4344C205.421 27.216 205.294 27.0912 205.105 27.0912H199.088V22.7472V22.1328C199.088 21.9456 198.962 21.8208 198.804 21.8208H196.367C196.145 21.8208 196.019 21.9456 196.019 22.1328V22.8072V27.0912H192.187C191.997 27.0912 191.871 27.216 191.871 27.4344V29.3112C191.871 29.4672 191.997 29.592 192.187 29.592H196.019V36.4705C196.019 39.6913 197.983 41.4745 201.117 41.4745H205.107C205.297 41.4745 205.423 41.3497 205.423 41.1625V39.2857C205.423 39.0985 205.297 38.9737 205.107 38.9737H201.625C199.946 38.9737 199.093 38.0977 199.093 36.4417V29.5944L205.105 29.592Z" fill="#0000FF"/>
<path d="M138.455 10.8216C138.455 9.44637 139.247 8.60157 140.671 8.60157C142.095 8.60157 142.887 9.44637 142.887 10.8216C142.887 12.228 142.095 13.0104 140.671 13.0104C139.247 13.0104 138.455 12.228 138.455 10.8216Z" fill="#0000FF"/>
<path d="M178.035 10.8216C178.035 9.44637 178.827 8.60157 180.251 8.60157C181.675 8.60157 182.467 9.44637 182.467 10.8216C182.467 12.228 181.675 13.0104 180.251 13.0104C178.827 13.0104 178.035 12.228 178.035 10.8216Z" fill="#0000FF"/>
</svg>
