<svg width="183" height="36" viewBox="0 0 183 36" fill="none" xmlns="http://www.w3.org/2000/svg">
<path d="M5.34357 20.1546C6.50632 20.1546 7.55244 20.3886 8.43088 20.7414C8.57304 20.8116 8.57304 20.952 8.52565 21.0456L8.0026 22.3596C7.93152 22.4766 7.81306 22.5 7.6709 22.4532C6.76876 22.149 6.19832 22.0788 5.50941 22.0788C3.68145 22.0788 2.37472 23.2506 2.37472 25.7148C2.37472 28.341 3.91837 29.3508 5.50941 29.3508C6.36417 29.3508 6.91092 29.2104 7.78936 28.881C7.90783 28.8342 8.07368 28.8576 8.12106 28.9746L8.64412 30.2652C8.6915 30.4056 8.66781 30.5226 8.54935 30.5928C7.6946 31.0158 6.55553 31.2732 5.29619 31.2732C2.13779 31.2732 0 29.2788 0 25.7148C0.0018225 22.2642 2.06671 20.1546 5.34357 20.1546Z" fill="#0000FF"/>
<path d="M19.2837 29.394C20.4227 29.394 21.303 29.16 22.1341 28.7838C22.2762 28.737 22.3947 28.7838 22.4421 28.8774L22.9414 30.1914C22.9888 30.3084 22.9651 30.402 22.823 30.4488C21.7313 31.0122 20.7089 31.2696 19.2855 31.2696C16.0797 31.2696 14.1807 29.3238 14.1807 25.8516C14.1807 22.2876 16.0797 20.1528 19.0249 20.1528C21.8516 20.1528 23.4645 21.9582 23.4645 25.4772V26.181C23.4645 26.3448 23.3934 26.4384 23.2039 26.4384H16.5044C16.5773 28.3626 17.6689 29.394 19.2837 29.394ZM18.9994 21.8664C17.8603 21.8664 16.6483 22.7106 16.4825 24.8922H21.2082C21.2064 22.5702 20.1147 21.8664 18.9994 21.8664Z" fill="#0000FF"/>
<path d="M29.377 28.9962C29.4244 28.8558 29.5429 28.8324 29.685 28.8792C30.9444 29.2536 32.1782 29.4426 33.2699 29.4426C34.7425 29.4426 35.692 29.0196 35.692 28.2942C35.692 27.4032 34.5056 26.9802 33.1277 26.5356C31.3235 25.9254 29.2331 25.245 29.2331 23.1822C29.2331 21.0708 31.4893 20.1564 34.0536 20.1564C35.3603 20.1564 36.6415 20.3202 37.6147 20.6262C37.7569 20.673 37.8043 20.79 37.7569 20.9304L37.3778 22.221C37.3304 22.3848 37.212 22.4316 37.0461 22.3848C36.4283 22.221 35.0268 21.9618 33.8167 21.9618C32.6302 21.9618 31.5367 22.2426 31.5367 23.1102C31.5367 23.9076 32.6995 24.354 34.0536 24.8454C35.8579 25.5024 37.972 26.253 37.972 28.1286C37.972 30.4506 35.7631 31.2714 33.2936 31.2714C31.6788 31.2714 30.0878 30.9672 29.0909 30.591C28.9487 30.5442 28.9487 30.4506 28.9724 30.3336L29.377 28.9962Z" fill="#0000FF"/>
<path d="M50.1572 20.4822C50.2994 20.3418 50.3704 20.3184 50.56 20.3184H52.7215C52.8873 20.3184 53.0058 20.529 52.8636 20.6694L48.3037 25.3368L53.2427 30.7548C53.3612 30.8952 53.2901 31.1058 53.1005 31.1058H50.7969C50.631 31.1058 50.5363 31.059 50.3923 30.9186L45.9527 25.9236V30.8718C45.9527 31.0122 45.8816 31.1058 45.7158 31.1058H43.9352C43.7693 31.1058 43.6746 31.0122 43.6746 30.8718V14.4072C43.6746 14.2668 43.7693 14.1732 43.9352 14.1732H45.7158C45.8816 14.1732 45.9527 14.2668 45.9527 14.4072V24.9138L50.1572 20.4822Z" fill="#0000FF"/>
<path d="M62.581 31.2714C59.0198 31.2714 57.8079 29.0664 57.8079 25.713C57.8079 22.3362 59.0198 20.1546 62.581 20.1546C66.1422 20.1546 67.3304 22.3362 67.3304 25.713C67.3304 29.0898 66.1422 31.2714 62.581 31.2714ZM62.581 21.8664C61.0136 21.8664 60.1826 23.1102 60.1826 25.713C60.1826 28.3392 61.0136 29.583 62.581 29.583C64.172 29.583 64.9794 28.3392 64.9794 25.713C64.9794 23.085 64.172 21.8664 62.581 21.8664Z" fill="#0000FF"/>
<path d="M74.6116 29.6298C74.6116 28.5984 75.2057 27.9648 76.2737 27.9648C77.3417 27.9648 77.9358 28.5984 77.9358 29.6298C77.9358 30.6846 77.3417 31.2714 76.2737 31.2714C75.2057 31.2714 74.6116 30.6846 74.6116 29.6298Z" fill="#0000FF"/>
<path d="M92.3841 14.409C92.3841 14.2686 92.4788 14.175 92.621 14.175H94.4253C94.5674 14.175 94.6622 14.2686 94.6622 14.409V30.8737C94.6622 31.0141 94.5674 31.1076 94.4253 31.1076H93.1422C93.0237 31.1076 92.9527 31.0609 92.929 30.9205L92.6921 30.123C91.5056 30.9438 90.5543 31.2714 89.5337 31.2714C86.8983 31.2714 85.4731 29.3022 85.4731 25.7832C85.4731 22.194 87.0405 20.1546 89.7943 20.1546C90.7675 20.1546 91.5986 20.5056 92.3822 21.069L92.3841 14.409ZM90.341 29.4174C91.0062 29.4174 91.7899 29.1601 92.3841 28.7839V22.6854C91.7662 22.2876 91.0299 21.9816 90.341 21.9816C88.8921 21.9816 87.8242 23.1552 87.8242 25.8048C87.8242 28.4562 88.8466 29.4174 90.341 29.4174Z" fill="#0000FF"/>
<path d="M100.634 22.194C100.492 22.194 100.398 22.1004 100.398 21.96V20.5758C100.398 20.412 100.492 20.3184 100.634 20.3184H106.665C106.831 20.3184 106.926 20.412 106.926 20.5758V29.1132C106.926 29.2302 106.949 29.277 107.068 29.277H110.321C110.463 29.277 110.558 29.3472 110.558 29.511V30.8718C110.558 31.0122 110.463 31.1058 110.321 31.1058H100.633C100.491 31.1058 100.396 31.0122 100.396 30.8718V29.511C100.396 29.3472 100.491 29.277 100.633 29.277H104.48C104.575 29.277 104.622 29.2302 104.622 29.1132V22.194H100.634Z" fill="#0000FF"/>
<path d="M130.322 22.194C130.18 22.194 130.085 22.1004 130.085 21.96V20.5758C130.085 20.412 130.18 20.3184 130.322 20.3184H136.352C136.518 20.3184 136.613 20.412 136.613 20.5758V29.1132C136.613 29.2302 136.637 29.277 136.755 29.277H140.008C140.15 29.277 140.245 29.3472 140.245 29.511V30.8718C140.245 31.0122 140.15 31.1058 140.008 31.1058H130.32C130.178 31.1058 130.083 31.0122 130.083 30.8718V29.511C130.083 29.3472 130.178 29.277 130.32 29.277H134.167C134.262 29.277 134.309 29.2302 134.309 29.1132V22.194H130.322Z" fill="#0000FF"/>
<path d="M166.117 24.0948C166.117 22.8042 165.476 22.1958 164.147 22.1958H160.918C160.775 22.1958 160.681 22.1022 160.681 21.9852V20.5776C160.681 20.4138 160.775 20.3202 160.918 20.3202H164.502C167.114 20.3202 168.397 21.6108 168.397 24.2838V30.8736C168.397 31.014 168.326 31.1076 168.184 31.1076H166.901C166.782 31.1076 166.735 31.0608 166.688 30.9438L166.451 30.1464C164.954 30.9204 164.076 31.2714 162.627 31.2714C160.799 31.2714 159.682 30.051 159.682 28.269C159.682 25.8066 161.202 24.822 164.265 24.822H166.117V24.0948ZM164.264 26.37C162.696 26.37 161.984 26.9802 161.984 28.0818C161.984 28.9494 162.412 29.5596 163.267 29.5596C164.098 29.5596 165.095 29.2554 166.115 28.8558V26.37H164.264Z" fill="#0000FF"/>
<path d="M172.327 16.0506C172.184 16.0506 172.09 15.957 172.09 15.8166V14.409C172.09 14.2686 172.184 14.175 172.327 14.175H178.073C178.215 14.175 178.31 14.2452 178.31 14.409V27.3312C178.31 28.5516 178.928 29.2302 180.185 29.2302H182.013C182.155 29.2302 182.25 29.3238 182.25 29.4642V30.8718C182.25 31.0122 182.155 31.1058 182.013 31.1058H179.828C177.406 31.1058 176.004 29.6982 176.004 27.3528V16.0488H172.327V16.0506Z" fill="#0000FF"/>
<path d="M123.822 20.3184H122.587C122.421 20.3184 122.374 20.3886 122.35 20.4822L122.066 21.303C121.163 20.5524 120.167 20.1546 119.12 20.1546C116.414 20.1546 114.87 22.1238 114.87 25.7832C114.87 29.466 116.343 31.2714 118.884 31.2714C119.857 31.2714 120.95 30.897 121.781 30.2868V30.519V32.319C121.781 33.4674 121.187 34.1244 119.977 34.1244H116.58C116.438 34.1244 116.343 34.218 116.343 34.3584V35.766C116.343 35.9064 116.438 36 116.58 36H120.546C122.778 36 124.059 34.7328 124.059 32.5296V20.5776C124.059 20.412 123.965 20.3184 123.822 20.3184ZM119.667 29.4174C118.195 29.4174 117.245 28.4796 117.245 25.8048C117.245 23.202 118.195 21.9816 119.691 21.9816C120.356 21.9816 121.187 22.2858 121.781 22.6854V28.7838C121.209 29.16 120.354 29.4174 119.667 29.4174Z" fill="#0000FF"/>
<path d="M1.41769 0.397799C1.27554 0.257399 1.37031 0 1.58354 0H3.55366C3.69582 0 3.76689 0.0233998 3.88535 0.1404L8.70587 4.73761L3.88535 9.33482C3.76689 9.45182 3.69582 9.47522 3.55366 9.47522H1.58354C1.37031 9.47522 1.27554 9.21782 1.41769 9.07742L6.07235 4.73941L1.41769 0.397799Z" fill="#0000FF"/>
<path d="M153.828 22.194C153.97 22.194 154.065 22.1004 154.065 21.9834V20.5758C154.065 20.412 153.97 20.3184 153.828 20.3184H149.316V17.0604V16.5996C149.316 16.4592 149.221 16.3656 149.102 16.3656H147.274C147.109 16.3656 147.014 16.4592 147.014 16.5996V17.1054V20.3184H144.14C143.998 20.3184 143.903 20.412 143.903 20.5758V21.9834C143.903 22.1004 143.998 22.194 144.14 22.194H147.014V27.3528C147.014 29.7684 148.486 31.1058 150.837 31.1058H153.83C153.972 31.1058 154.067 31.0122 154.067 30.8718V29.4642C154.067 29.3238 153.972 29.2302 153.83 29.2302H151.218C149.959 29.2302 149.319 28.5732 149.319 27.3312V22.1958L153.828 22.194Z" fill="#0000FF"/>
<path d="M103.841 8.11618C103.841 7.08478 104.435 6.45118 105.503 6.45118C106.571 6.45118 107.165 7.08478 107.165 8.11618C107.165 9.17098 106.571 9.75778 105.503 9.75778C104.435 9.75778 103.841 9.17098 103.841 8.11618Z" fill="#0000FF"/>
<path d="M133.527 8.11618C133.527 7.08478 134.121 6.45118 135.189 6.45118C136.257 6.45118 136.851 7.08478 136.851 8.11618C136.851 9.17098 136.257 9.75778 135.189 9.75778C134.121 9.75778 133.527 9.17098 133.527 8.11618Z" fill="#0000FF"/>
</svg>