<svg width="37" height="32" viewBox="0 0 37 32" fill="none" xmlns="http://www.w3.org/2000/svg">
<path d="M6.03664 19.2808C7.35021 19.2808 8.53201 19.5485 9.52439 19.9521C9.68498 20.0324 9.68499 20.193 9.63146 20.3001L9.04056 21.8033C8.96026 21.9371 8.82643 21.9639 8.66584 21.9103C7.64669 21.5623 7.00226 21.482 6.224 21.482C4.15894 21.482 2.68272 22.8225 2.68272 25.6414C2.68272 28.6457 4.4266 29.8009 6.224 29.8009C7.18962 29.8009 7.80728 29.6403 8.79967 29.2634C8.93349 29.2099 9.12085 29.2367 9.17438 29.3705L9.76528 30.8469C9.81881 31.0075 9.79205 31.1414 9.65822 31.2217C8.69261 31.7055 7.4058 32 5.98311 32C2.41507 32 0 29.7185 0 25.6414C0.00205888 21.6941 2.33477 19.2808 6.03664 19.2808Z" fill="#0000FF"/>
<path d="M15.7859 30.12C15.7859 28.9401 16.4571 28.2153 17.6636 28.2153C18.8701 28.2153 19.5413 28.9401 19.5413 30.12C19.5413 31.3266 18.8701 31.9979 17.6636 31.9979C16.4571 31.9979 15.7859 31.3266 15.7859 30.12Z" fill="#0000FF"/>
<path d="M33.4613 12.7081C33.4613 12.5475 33.5684 12.4404 33.729 12.4404H35.7673C35.9279 12.4404 36.0349 12.5475 36.0349 12.7081V31.5428C36.0349 31.7034 35.9279 31.8105 35.7673 31.8105H34.3178C34.184 31.8105 34.1037 31.757 34.0769 31.5964L33.8093 30.6842C32.4689 31.6231 31.3942 31.9979 30.2412 31.9979C27.2641 31.9979 25.6541 29.7452 25.6541 25.7196C25.6541 21.6137 27.4247 19.2808 30.5357 19.2808C31.6351 19.2808 32.5739 19.6823 33.4593 20.3268L33.4613 12.7081ZM31.1533 29.877C31.9048 29.877 32.7901 29.5825 33.4613 29.1522V22.1759C32.7634 21.7208 31.9316 21.3708 31.1533 21.3708C29.5165 21.3708 28.31 22.7133 28.31 25.7443C28.31 28.7774 29.465 29.877 31.1533 29.877Z" fill="#0000FF"/>
<path d="M1.60126 0.455063C1.44067 0.294452 1.54773 0 1.78862 0H4.01427C4.17487 0 4.25516 0.0267683 4.38899 0.160611L9.83474 5.4196L4.38899 10.6786C4.25516 10.8124 4.17487 10.8392 4.01427 10.8392H1.78862C1.54773 10.8392 1.44067 10.5447 1.60126 10.3841L6.85965 5.42166L1.60126 0.455063Z" fill="#0000FF"/>
</svg>
