<svg width="181" height="373" viewBox="0 0 181 373" fill="none" xmlns="http://www.w3.org/2000/svg">
<path d="M104.763 5.36024C104.618 5.17691 104.715 4.84082 104.932 4.84082H106.942C107.087 4.84082 107.16 4.87137 107.281 5.02414L112.198 11.0268L107.281 17.0295C107.16 17.1823 107.087 17.2129 106.942 17.2129H104.932C104.715 17.2129 104.618 16.8768 104.763 16.6934L109.512 11.0292L104.763 5.36024Z" fill="#CFCFDA"/>
<path d="M104.763 26.0162C104.618 25.8329 104.715 25.4968 104.932 25.4968H106.942C107.087 25.4968 107.16 25.5274 107.281 25.6802L112.198 31.6829L107.281 37.6856C107.16 37.8383 107.087 37.8689 106.942 37.8689H104.932C104.715 37.8689 104.618 37.5328 104.763 37.3495L109.512 31.6852L104.763 26.0162Z" fill="#CFCFDA"/>
<path d="M104.763 46.6722C104.618 46.4889 104.715 46.1528 104.932 46.1528H106.942C107.087 46.1528 107.16 46.1834 107.281 46.3362L112.198 52.3389L107.281 58.3416C107.16 58.4943 107.087 58.5249 106.942 58.5249H104.932C104.715 58.5249 104.618 58.1888 104.763 58.0055L109.512 52.3412L104.763 46.6722Z" fill="#CFCFDA"/>
<path d="M104.763 67.328C104.618 67.1447 104.715 66.8086 104.932 66.8086H106.942C107.087 66.8086 107.16 66.8391 107.281 66.9919L112.198 72.9946L107.281 78.9973C107.16 79.1501 107.087 79.1806 106.942 79.1806H104.932C104.715 79.1806 104.618 78.8445 104.763 78.6612L109.512 72.997L104.763 67.328Z" fill="#CFCFDA"/>
<path d="M104.763 87.984C104.618 87.8007 104.715 87.4646 104.932 87.4646H106.942C107.087 87.4646 107.16 87.4952 107.281 87.6479L112.198 93.6506L107.281 99.6533C107.16 99.8061 107.087 99.8367 106.942 99.8367H104.932C104.715 99.8367 104.618 99.5006 104.763 99.3172L109.512 93.653L104.763 87.984Z" fill="#CFCFDA"/>
<path d="M104.763 108.64C104.618 108.457 104.715 108.121 104.932 108.121H106.942C107.087 108.121 107.16 108.151 107.281 108.304L112.198 114.307L107.281 120.309C107.16 120.462 107.087 120.493 106.942 120.493H104.932C104.715 120.493 104.618 120.157 104.763 119.973L109.512 114.309L104.763 108.64Z" fill="#CFCFDA"/>
<path d="M104.763 129.296C104.618 129.113 104.715 128.777 104.932 128.777H106.942C107.087 128.777 107.16 128.807 107.281 128.96L112.198 134.963L107.281 140.965C107.16 141.118 107.087 141.149 106.942 141.149H104.932C104.715 141.149 104.618 140.813 104.763 140.629L109.512 134.965L104.763 129.296Z" fill="#CFCFDA"/>
<path d="M104.763 149.952C104.618 149.768 104.715 149.432 104.932 149.432H106.942C107.087 149.432 107.16 149.463 107.281 149.616L112.198 155.618L107.281 161.621C107.16 161.774 107.087 161.804 106.942 161.804H104.932C104.715 161.804 104.618 161.468 104.763 161.285L109.512 155.621L104.763 149.952Z" fill="#CFCFDA"/>
<path d="M104.763 170.608C104.618 170.424 104.715 170.088 104.932 170.088H106.942C107.087 170.088 107.16 170.119 107.281 170.272L112.198 176.274L107.281 182.277C107.16 182.43 107.087 182.46 106.942 182.46H104.932C104.715 182.46 104.618 182.124 104.763 181.941L109.512 176.277L104.763 170.608Z" fill="#CFCFDA"/>
<path d="M120.772 26.0162C120.627 25.8329 120.723 25.4968 120.941 25.4968H122.951C123.096 25.4968 123.168 25.5274 123.289 25.6802L128.207 31.6829L123.289 37.6856C123.168 37.8383 123.096 37.8689 122.951 37.8689H120.941C120.723 37.8689 120.627 37.5328 120.772 37.3495L125.52 31.6852L120.772 26.0162Z" fill="#CFCFDA"/>
<path d="M120.772 46.6722C120.627 46.4889 120.723 46.1528 120.941 46.1528H122.951C123.096 46.1528 123.168 46.1834 123.289 46.3362L128.207 52.3389L123.289 58.3416C123.168 58.4943 123.096 58.5249 122.951 58.5249H120.941C120.723 58.5249 120.627 58.1888 120.772 58.0055L125.52 52.3412L120.772 46.6722Z" fill="#CFCFDA"/>
<path d="M120.772 67.328C120.627 67.1447 120.723 66.8086 120.941 66.8086H122.951C123.096 66.8086 123.168 66.8391 123.289 66.9919L128.207 72.9946L123.289 78.9973C123.168 79.1501 123.096 79.1806 122.951 79.1806H120.941C120.723 79.1806 120.627 78.8445 120.772 78.6612L125.52 72.997L120.772 67.328Z" fill="#CFCFDA"/>
<path d="M120.772 87.984C120.627 87.8007 120.723 87.4646 120.941 87.4646H122.951C123.096 87.4646 123.168 87.4952 123.289 87.6479L128.207 93.6506L123.289 99.6533C123.168 99.8061 123.096 99.8367 122.951 99.8367H120.941C120.723 99.8367 120.627 99.5006 120.772 99.3172L125.52 93.653L120.772 87.984Z" fill="#CFCFDA"/>
<path d="M120.772 108.64C120.627 108.457 120.723 108.121 120.941 108.121H122.951C123.096 108.121 123.168 108.151 123.289 108.304L128.207 114.307L123.289 120.309C123.168 120.462 123.096 120.493 122.951 120.493H120.941C120.723 120.493 120.627 120.157 120.772 119.973L125.52 114.309L120.772 108.64Z" fill="#CFCFDA"/>
<path d="M120.772 129.296C120.627 129.113 120.723 128.777 120.941 128.777H122.951C123.096 128.777 123.168 128.807 123.289 128.96L128.207 134.963L123.289 140.965C123.168 141.118 123.096 141.149 122.951 141.149H120.941C120.723 141.149 120.627 140.813 120.772 140.629L125.52 134.965L120.772 129.296Z" fill="#CFCFDA"/>
<path d="M120.772 149.952C120.627 149.768 120.723 149.432 120.941 149.432H122.951C123.096 149.432 123.168 149.463 123.289 149.616L128.207 155.618L123.289 161.621C123.168 161.774 123.096 161.804 122.951 161.804H120.941C120.723 161.804 120.627 161.468 120.772 161.285L125.52 155.621L120.772 149.952Z" fill="#CFCFDA"/>
<path d="M136.78 46.6722C136.635 46.4889 136.732 46.1528 136.949 46.1528H138.959C139.104 46.1528 139.177 46.1834 139.297 46.3362L144.215 52.3389L139.297 58.3416C139.177 58.4943 139.104 58.5249 138.959 58.5249H136.949C136.732 58.5249 136.635 58.1888 136.78 58.0055L141.528 52.3412L136.78 46.6722Z" fill="#CFCFDA"/>
<path d="M136.78 67.328C136.635 67.1447 136.732 66.8086 136.949 66.8086H138.959C139.104 66.8086 139.177 66.8391 139.297 66.9919L144.215 72.9946L139.297 78.9973C139.177 79.1501 139.104 79.1806 138.959 79.1806H136.949C136.732 79.1806 136.635 78.8445 136.78 78.6612L141.528 72.997L136.78 67.328Z" fill="#CFCFDA"/>
<path d="M136.78 87.984C136.635 87.8007 136.732 87.4646 136.949 87.4646H138.959C139.104 87.4646 139.177 87.4952 139.297 87.6479L144.215 93.6506L139.297 99.6533C139.177 99.8061 139.104 99.8367 138.959 99.8367H136.949C136.732 99.8367 136.635 99.5006 136.78 99.3172L141.528 93.653L136.78 87.984Z" fill="#CFCFDA"/>
<path d="M136.78 108.64C136.635 108.457 136.732 108.121 136.949 108.121H138.959C139.104 108.121 139.177 108.151 139.297 108.304L144.215 114.307L139.297 120.309C139.177 120.462 139.104 120.493 138.959 120.493H136.949C136.732 120.493 136.635 120.157 136.78 119.973L141.528 114.309L136.78 108.64Z" fill="#CFCFDA"/>
<path d="M136.78 129.296C136.635 129.113 136.732 128.777 136.949 128.777H138.959C139.104 128.777 139.177 128.807 139.297 128.96L144.215 134.963L139.297 140.965C139.177 141.118 139.104 141.149 138.959 141.149H136.949C136.732 141.149 136.635 140.813 136.78 140.629L141.528 134.965L136.78 129.296Z" fill="#CFCFDA"/>
<path d="M152.788 67.328C152.643 67.1447 152.74 66.8086 152.958 66.8086H154.967C155.112 66.8086 155.185 66.8391 155.306 66.9919L160.223 72.9946L155.306 78.9973C155.185 79.1501 155.112 79.1806 154.967 79.1806H152.958C152.74 79.1806 152.643 78.8445 152.788 78.6612L157.537 72.997L152.788 67.328Z" fill="#CFCFDA"/>
<path d="M152.788 87.984C152.643 87.8007 152.74 87.4646 152.958 87.4646H154.967C155.112 87.4646 155.185 87.4952 155.306 87.6479L160.223 93.6506L155.306 99.6533C155.185 99.8061 155.112 99.8367 154.967 99.8367H152.958C152.74 99.8367 152.643 99.5006 152.788 99.3172L157.537 93.653L152.788 87.984Z" fill="#CFCFDA"/>
<path d="M152.788 108.64C152.643 108.457 152.74 108.121 152.958 108.121H154.967C155.112 108.121 155.185 108.151 155.306 108.304L160.223 114.307L155.306 120.309C155.185 120.462 155.112 120.493 154.967 120.493H152.958C152.74 120.493 152.643 120.157 152.788 119.973L157.537 114.309L152.788 108.64Z" fill="#CFCFDA"/>
<path d="M168.797 87.984C168.652 87.8007 168.748 87.4646 168.966 87.4646H170.976C171.121 87.4646 171.193 87.4952 171.314 87.6479L176.232 93.6506L171.314 99.6533C171.193 99.8061 171.121 99.8367 170.976 99.8367H168.966C168.748 99.8367 168.652 99.5006 168.797 99.3172L173.545 93.653L168.797 87.984Z" fill="#CFCFDA"/>
<path d="M4.71129 191.264C4.56627 191.08 4.66295 190.744 4.88048 190.744H6.89028C7.03529 190.744 7.1078 190.775 7.22865 190.928L12.1462 196.93L7.22865 202.933C7.1078 203.086 7.03529 203.116 6.89028 203.116H4.88048C4.66295 203.116 4.56627 202.78 4.71129 202.597L9.45969 196.933L4.71129 191.264Z" fill="#CFCFDA"/>
<path d="M4.71129 211.92C4.56627 211.736 4.66295 211.4 4.88048 211.4H6.89028C7.03529 211.4 7.1078 211.431 7.22865 211.584L12.1462 217.586L7.22865 223.589C7.1078 223.742 7.03529 223.772 6.89028 223.772H4.88048C4.66295 223.772 4.56627 223.436 4.71129 223.253L9.45969 217.589L4.71129 211.92Z" fill="#CFCFDA"/>
<path d="M4.71129 232.576C4.56627 232.392 4.66295 232.056 4.88048 232.056H6.89028C7.03529 232.056 7.1078 232.087 7.22865 232.24L12.1462 238.242L7.22865 244.245C7.1078 244.398 7.03529 244.428 6.89028 244.428H4.88048C4.66295 244.428 4.56627 244.092 4.71129 243.909L9.45969 238.245L4.71129 232.576Z" fill="#CFCFDA"/>
<path d="M4.71129 253.232C4.56627 253.048 4.66295 252.712 4.88048 252.712H6.89028C7.03529 252.712 7.1078 252.743 7.22865 252.895L12.1462 258.898L7.22865 264.901C7.1078 265.054 7.03529 265.084 6.89028 265.084H4.88048C4.66295 265.084 4.56627 264.748 4.71129 264.565L9.45969 258.901L4.71129 253.232Z" fill="#CFCFDA"/>
<path d="M4.71129 273.888C4.56627 273.704 4.66295 273.368 4.88048 273.368H6.89028C7.03529 273.368 7.1078 273.399 7.22865 273.551L12.1462 279.554L7.22865 285.557C7.1078 285.71 7.03529 285.74 6.89028 285.74H4.88048C4.66295 285.74 4.56627 285.404 4.71129 285.221L9.45969 279.557L4.71129 273.888Z" fill="#CFCFDA"/>
<path d="M4.71129 294.544C4.56627 294.36 4.66295 294.024 4.88048 294.024H6.89028C7.03529 294.024 7.1078 294.055 7.22865 294.207L12.1462 300.21L7.22865 306.213C7.1078 306.366 7.03529 306.396 6.89028 306.396H4.88048C4.66295 306.396 4.56627 306.06 4.71129 305.877L9.45969 300.213L4.71129 294.544Z" fill="#CFCFDA"/>
<path d="M4.71129 315.2C4.56627 315.016 4.66295 314.68 4.88048 314.68H6.89028C7.03529 314.68 7.1078 314.711 7.22865 314.863L12.1462 320.866L7.22865 326.869C7.1078 327.022 7.03529 327.052 6.89028 327.052H4.88048C4.66295 327.052 4.56627 326.716 4.71129 326.533L9.45969 320.869L4.71129 315.2Z" fill="#CFCFDA"/>
<path d="M4.71129 335.855C4.56627 335.672 4.66295 335.336 4.88048 335.336H6.89028C7.03529 335.336 7.1078 335.366 7.22865 335.519L12.1462 341.522L7.22865 347.525C7.1078 347.677 7.03529 347.708 6.89028 347.708H4.88048C4.66295 347.708 4.56627 347.372 4.71129 347.189L9.45969 341.524L4.71129 335.855Z" fill="#CFCFDA"/>
<path d="M4.71129 356.511C4.56627 356.328 4.66295 355.992 4.88048 355.992H6.89028C7.03529 355.992 7.1078 356.022 7.22865 356.175L12.1462 362.178L7.22865 368.181C7.1078 368.333 7.03529 368.364 6.89028 368.364H4.88048C4.66295 368.364 4.56627 368.028 4.71129 367.845L9.45969 362.18L4.71129 356.511Z" fill="#CFCFDA"/>
<path d="M20.7195 211.92C20.5744 211.736 20.6711 211.4 20.8887 211.4H22.8985C23.0435 211.4 23.116 211.431 23.2368 211.584L28.1544 217.586L23.2368 223.589C23.116 223.742 23.0435 223.772 22.8985 223.772H20.8887C20.6711 223.772 20.5744 223.436 20.7195 223.253L25.4679 217.589L20.7195 211.92Z" fill="#CFCFDA"/>
<path d="M20.7195 232.576C20.5744 232.392 20.6711 232.056 20.8887 232.056H22.8985C23.0435 232.056 23.116 232.087 23.2368 232.24L28.1544 238.242L23.2368 244.245C23.116 244.398 23.0435 244.428 22.8985 244.428H20.8887C20.6711 244.428 20.5744 244.092 20.7195 243.909L25.4679 238.245L20.7195 232.576Z" fill="#CFCFDA"/>
<path d="M20.7195 253.232C20.5744 253.048 20.6711 252.712 20.8887 252.712H22.8985C23.0435 252.712 23.116 252.743 23.2368 252.895L28.1544 258.898L23.2368 264.901C23.116 265.054 23.0435 265.084 22.8985 265.084H20.8887C20.6711 265.084 20.5744 264.748 20.7195 264.565L25.4679 258.901L20.7195 253.232Z" fill="#CFCFDA"/>
<path d="M20.7195 273.888C20.5744 273.704 20.6711 273.368 20.8887 273.368H22.8985C23.0435 273.368 23.116 273.399 23.2368 273.551L28.1544 279.554L23.2368 285.557C23.116 285.71 23.0435 285.74 22.8985 285.74H20.8887C20.6711 285.74 20.5744 285.404 20.7195 285.221L25.4679 279.557L20.7195 273.888Z" fill="#CFCFDA"/>
<path d="M20.7195 294.544C20.5744 294.36 20.6711 294.024 20.8887 294.024H22.8985C23.0435 294.024 23.116 294.055 23.2368 294.207L28.1544 300.21L23.2368 306.213C23.116 306.366 23.0435 306.396 22.8985 306.396H20.8887C20.6711 306.396 20.5744 306.06 20.7195 305.877L25.4679 300.213L20.7195 294.544Z" fill="#CFCFDA"/>
<path d="M20.7195 315.2C20.5744 315.016 20.6711 314.68 20.8887 314.68H22.8985C23.0435 314.68 23.116 314.711 23.2368 314.863L28.1544 320.866L23.2368 326.869C23.116 327.022 23.0435 327.052 22.8985 327.052H20.8887C20.6711 327.052 20.5744 326.716 20.7195 326.533L25.4679 320.869L20.7195 315.2Z" fill="#CFCFDA"/>
<path d="M20.7195 335.855C20.5744 335.672 20.6711 335.336 20.8887 335.336H22.8985C23.0435 335.336 23.116 335.366 23.2368 335.519L28.1544 341.522L23.2368 347.525C23.116 347.677 23.0435 347.708 22.8985 347.708H20.8887C20.6711 347.708 20.5744 347.372 20.7195 347.189L25.4679 341.524L20.7195 335.855Z" fill="#CFCFDA"/>
<path d="M36.7279 232.576C36.5829 232.392 36.6796 232.056 36.8971 232.056H38.9069C39.0519 232.056 39.1244 232.087 39.2452 232.24L44.1628 238.242L39.2452 244.245C39.1244 244.398 39.0519 244.428 38.9069 244.428H36.8971C36.6796 244.428 36.5829 244.092 36.7279 243.909L41.4763 238.245L36.7279 232.576Z" fill="#CFCFDA"/>
<path d="M36.7279 253.232C36.5829 253.048 36.6796 252.712 36.8971 252.712H38.9069C39.0519 252.712 39.1244 252.743 39.2452 252.895L44.1628 258.898L39.2452 264.901C39.1244 265.054 39.0519 265.084 38.9069 265.084H36.8971C36.6796 265.084 36.5829 264.748 36.7279 264.565L41.4763 258.901L36.7279 253.232Z" fill="#CFCFDA"/>
<path d="M36.7279 273.888C36.5829 273.704 36.6796 273.368 36.8971 273.368H38.9069C39.0519 273.368 39.1244 273.399 39.2452 273.551L44.1628 279.554L39.2452 285.557C39.1244 285.71 39.0519 285.74 38.9069 285.74H36.8971C36.6796 285.74 36.5829 285.404 36.7279 285.221L41.4763 279.557L36.7279 273.888Z" fill="#CFCFDA"/>
<path d="M36.7279 294.544C36.5829 294.36 36.6796 294.024 36.8971 294.024H38.9069C39.0519 294.024 39.1244 294.055 39.2452 294.207L44.1628 300.21L39.2452 306.213C39.1244 306.366 39.0519 306.396 38.9069 306.396H36.8971C36.6796 306.396 36.5829 306.06 36.7279 305.877L41.4763 300.213L36.7279 294.544Z" fill="#CFCFDA"/>
<path d="M36.7279 315.2C36.5829 315.016 36.6796 314.68 36.8971 314.68H38.9069C39.0519 314.68 39.1244 314.711 39.2452 314.863L44.1628 320.866L39.2452 326.869C39.1244 327.022 39.0519 327.052 38.9069 327.052H36.8971C36.6796 327.052 36.5829 326.716 36.7279 326.533L41.4763 320.869L36.7279 315.2Z" fill="#CFCFDA"/>
<path d="M52.7362 253.232C52.5912 253.048 52.6879 252.712 52.9054 252.712H54.9152C55.0602 252.712 55.1327 252.743 55.2535 252.895L60.1711 258.898L55.2535 264.901C55.1327 265.054 55.0602 265.084 54.9152 265.084H52.9054C52.6879 265.084 52.5912 264.748 52.7362 264.565L57.4846 258.901L52.7362 253.232Z" fill="#CFCFDA"/>
<path d="M52.7362 273.888C52.5912 273.704 52.6879 273.368 52.9054 273.368H54.9152C55.0602 273.368 55.1327 273.399 55.2535 273.551L60.1711 279.554L55.2535 285.557C55.1327 285.71 55.0602 285.74 54.9152 285.74H52.9054C52.6879 285.74 52.5912 285.404 52.7362 285.221L57.4846 279.557L52.7362 273.888Z" fill="#CFCFDA"/>
<path d="M52.7362 294.544C52.5912 294.36 52.6879 294.024 52.9054 294.024H54.9152C55.0602 294.024 55.1327 294.055 55.2535 294.207L60.1711 300.21L55.2535 306.213C55.1327 306.366 55.0602 306.396 54.9152 306.396H52.9054C52.6879 306.396 52.5912 306.06 52.7362 305.877L57.4846 300.213L52.7362 294.544Z" fill="#CFCFDA"/>
<path d="M68.7445 273.888C68.5995 273.704 68.6962 273.368 68.9137 273.368H70.9235C71.0685 273.368 71.141 273.399 71.2618 273.551L76.1794 279.554L71.2618 285.557C71.141 285.71 71.0685 285.74 70.9235 285.74H68.9137C68.6962 285.74 68.5995 285.404 68.7445 285.221L73.4929 279.557L68.7445 273.888Z" fill="#CFCFDA"/>
</svg>
