<svg width="245" height="233" viewBox="0 0 245 233" fill="none" xmlns="http://www.w3.org/2000/svg">
<path d="M4.07115 35.4023C3.92613 35.2603 4.02281 35 4.24034 35H6.25013C6.39515 35 6.46766 35.0237 6.58851 35.142L11.5061 39.7917L6.58851 44.4413C6.46766 44.5597 6.39515 44.5833 6.25013 44.5833H4.24034C4.02281 44.5833 3.92613 44.323 4.07115 44.181L8.81955 39.7935L4.07115 35.4023Z" fill="#080831"/>
<path d="M4.07115 51.4023C3.92613 51.2603 4.02281 51 4.24034 51H6.25013C6.39515 51 6.46766 51.0237 6.58851 51.142L11.5061 55.7917L6.58851 60.4413C6.46766 60.5597 6.39515 60.5833 6.25013 60.5833H4.24034C4.02281 60.5833 3.92613 60.323 4.07115 60.181L8.81955 55.7935L4.07115 51.4023Z" fill="#080831"/>
<path d="M4.07115 67.4023C3.92613 67.2603 4.02281 67 4.24034 67H6.25013C6.39515 67 6.46766 67.0237 6.58851 67.142L11.5061 71.7917L6.58851 76.4413C6.46766 76.5597 6.39515 76.5833 6.25013 76.5833H4.24034C4.02281 76.5833 3.92613 76.323 4.07115 76.181L8.81955 71.7935L4.07115 67.4023Z" fill="#080831"/>
<path d="M20.0795 19.4023C19.9344 19.2603 20.0311 19 20.2486 19H22.2584C22.4035 19 22.476 19.0237 22.5968 19.142L27.5144 23.7917L22.5968 28.4413C22.476 28.5597 22.4035 28.5833 22.2584 28.5833H20.2486C20.0311 28.5833 19.9344 28.323 20.0795 28.181L24.8278 23.7935L20.0795 19.4023Z" fill="#080831"/>
<path d="M20.0795 35.4023C19.9344 35.2603 20.0311 35 20.2486 35H22.2584C22.4035 35 22.476 35.0237 22.5968 35.142L27.5144 39.7917L22.5968 44.4413C22.476 44.5597 22.4035 44.5833 22.2584 44.5833H20.2486C20.0311 44.5833 19.9344 44.323 20.0795 44.181L24.8278 39.7935L20.0795 35.4023Z" fill="#080831"/>
<path d="M20.0795 51.4023C19.9344 51.2603 20.0311 51 20.2486 51H22.2584C22.4035 51 22.476 51.0237 22.5968 51.142L27.5144 55.7917L22.5968 60.4413C22.476 60.5597 22.4035 60.5833 22.2584 60.5833H20.2486C20.0311 60.5833 19.9344 60.323 20.0795 60.181L24.8278 55.7935L20.0795 51.4023Z" fill="#080831"/>
<path d="M20.0795 67.4023C19.9344 67.2603 20.0311 67 20.2486 67H22.2584C22.4035 67 22.476 67.0237 22.5968 67.142L27.5144 71.7917L22.5968 76.4413C22.476 76.5597 22.4035 76.5833 22.2584 76.5833H20.2486C20.0311 76.5833 19.9344 76.323 20.0795 76.181L24.8278 71.7935L20.0795 67.4023Z" fill="#080831"/>
<path d="M20.0795 83.4023C19.9344 83.2603 20.0311 83 20.2486 83H22.2584C22.4035 83 22.476 83.0237 22.5968 83.142L27.5144 87.7917L22.5968 92.4413C22.476 92.5597 22.4035 92.5833 22.2584 92.5833H20.2486C20.0311 92.5833 19.9344 92.323 20.0795 92.181L24.8278 87.7935L20.0795 83.4023Z" fill="#080831"/>
<path d="M36.0878 3.40234C35.9427 3.26034 36.0394 3 36.2569 3H38.2667C38.4118 3 38.4843 3.02367 38.6051 3.142L43.5227 7.79167L38.6051 12.4413C38.4843 12.5597 38.4118 12.5833 38.2667 12.5833H36.2569C36.0394 12.5833 35.9427 12.323 36.0878 12.181L40.8361 7.79349L36.0878 3.40234Z" fill="#080831"/>
<path d="M36.0878 19.4023C35.9427 19.2603 36.0394 19 36.2569 19H38.2667C38.4118 19 38.4843 19.0237 38.6051 19.142L43.5227 23.7917L38.6051 28.4413C38.4843 28.5597 38.4118 28.5833 38.2667 28.5833H36.2569C36.0394 28.5833 35.9427 28.323 36.0878 28.181L40.8361 23.7935L36.0878 19.4023Z" fill="#080831"/>
<path d="M36.0878 35.4023C35.9427 35.2603 36.0394 35 36.2569 35H38.2667C38.4118 35 38.4843 35.0237 38.6051 35.142L43.5227 39.7917L38.6051 44.4413C38.4843 44.5597 38.4118 44.5833 38.2667 44.5833H36.2569C36.0394 44.5833 35.9427 44.323 36.0878 44.181L40.8361 39.7935L36.0878 35.4023Z" fill="#080831"/>
<path d="M36.0878 51.4023C35.9427 51.2603 36.0394 51 36.2569 51H38.2667C38.4118 51 38.4843 51.0237 38.6051 51.142L43.5227 55.7917L38.6051 60.4413C38.4843 60.5597 38.4118 60.5833 38.2667 60.5833H36.2569C36.0394 60.5833 35.9427 60.323 36.0878 60.181L40.8361 55.7935L36.0878 51.4023Z" fill="#080831"/>
<path d="M36.0878 67.4023C35.9427 67.2603 36.0394 67 36.2569 67H38.2667C38.4118 67 38.4843 67.0237 38.6051 67.142L43.5227 71.7917L38.6051 76.4413C38.4843 76.5597 38.4118 76.5833 38.2667 76.5833H36.2569C36.0394 76.5833 35.9427 76.323 36.0878 76.181L40.8361 71.7935L36.0878 67.4023Z" fill="#080831"/>
<path d="M36.0878 83.4023C35.9427 83.2603 36.0394 83 36.2569 83H38.2667C38.4118 83 38.4843 83.0237 38.6051 83.142L43.5227 87.7917L38.6051 92.4413C38.4843 92.5597 38.4118 92.5833 38.2667 92.5833H36.2569C36.0394 92.5833 35.9427 92.323 36.0878 92.181L40.8361 87.7935L36.0878 83.4023Z" fill="#080831"/>
<path d="M36.0878 99.4023C35.9427 99.2603 36.0394 99 36.2569 99H38.2667C38.4118 99 38.4843 99.0237 38.6051 99.142L43.5227 103.792L38.6051 108.441C38.4843 108.56 38.4118 108.583 38.2667 108.583H36.2569C36.0394 108.583 35.9427 108.323 36.0878 108.181L40.8361 103.793L36.0878 99.4023Z" fill="#080831"/>
<path d="M52.0959 3.40234C51.9509 3.26034 52.0476 3 52.2651 3H54.2749C54.4199 3 54.4924 3.02367 54.6133 3.142L59.5309 7.79167L54.6133 12.4413C54.4924 12.5597 54.4199 12.5833 54.2749 12.5833H52.2651C52.0476 12.5833 51.9509 12.323 52.0959 12.181L56.8443 7.79349L52.0959 3.40234Z" fill="#080831"/>
<path d="M52.0959 19.4023C51.9509 19.2603 52.0476 19 52.2651 19H54.2749C54.4199 19 54.4924 19.0237 54.6133 19.142L59.5309 23.7917L54.6133 28.4413C54.4924 28.5597 54.4199 28.5833 54.2749 28.5833H52.2651C52.0476 28.5833 51.9509 28.323 52.0959 28.181L56.8443 23.7935L52.0959 19.4023Z" fill="#080831"/>
<path d="M52.0959 35.4023C51.9509 35.2603 52.0476 35 52.2651 35H54.2749C54.4199 35 54.4924 35.0237 54.6133 35.142L59.5309 39.7917L54.6133 44.4413C54.4924 44.5597 54.4199 44.5833 54.2749 44.5833H52.2651C52.0476 44.5833 51.9509 44.323 52.0959 44.181L56.8443 39.7935L52.0959 35.4023Z" fill="#080831"/>
<path d="M52.0959 51.4023C51.9509 51.2603 52.0476 51 52.2651 51H54.2749C54.4199 51 54.4924 51.0237 54.6133 51.142L59.5309 55.7917L54.6133 60.4413C54.4924 60.5597 54.4199 60.5833 54.2749 60.5833H52.2651C52.0476 60.5833 51.9509 60.323 52.0959 60.181L56.8443 55.7935L52.0959 51.4023Z" fill="#080831"/>
<path d="M52.0959 67.4023C51.9509 67.2603 52.0476 67 52.2651 67H54.2749C54.4199 67 54.4924 67.0237 54.6133 67.142L59.5309 71.7917L54.6133 76.4413C54.4924 76.5597 54.4199 76.5833 54.2749 76.5833H52.2651C52.0476 76.5833 51.9509 76.323 52.0959 76.181L56.8443 71.7935L52.0959 67.4023Z" fill="#080831"/>
<path d="M52.0959 83.4023C51.9509 83.2603 52.0476 83 52.2651 83H54.2749C54.4199 83 54.4924 83.0237 54.6133 83.142L59.5309 87.7917L54.6133 92.4413C54.4924 92.5597 54.4199 92.5833 54.2749 92.5833H52.2651C52.0476 92.5833 51.9509 92.323 52.0959 92.181L56.8443 87.7935L52.0959 83.4023Z" fill="#080831"/>
<path d="M52.0959 99.4023C51.9509 99.2603 52.0476 99 52.2651 99H54.2749C54.4199 99 54.4924 99.0237 54.6133 99.142L59.5309 103.792L54.6133 108.441C54.4924 108.56 54.4199 108.583 54.2749 108.583H52.2651C52.0476 108.583 51.9509 108.323 52.0959 108.181L56.8443 103.793L52.0959 99.4023Z" fill="#080831"/>
<path d="M68.1042 3.40234C67.9592 3.26034 68.0559 3 68.2734 3H70.2832C70.4282 3 70.5007 3.02367 70.6216 3.142L75.5392 7.79167L70.6216 12.4413C70.5007 12.5597 70.4282 12.5833 70.2832 12.5833H68.2734C68.0559 12.5833 67.9592 12.323 68.1042 12.181L72.8526 7.79349L68.1042 3.40234Z" fill="#080831"/>
<path d="M68.1042 19.4023C67.9592 19.2603 68.0559 19 68.2734 19H70.2832C70.4282 19 70.5007 19.0237 70.6216 19.142L75.5392 23.7917L70.6216 28.4413C70.5007 28.5597 70.4282 28.5833 70.2832 28.5833H68.2734C68.0559 28.5833 67.9592 28.323 68.1042 28.181L72.8526 23.7935L68.1042 19.4023Z" fill="#080831"/>
<path d="M68.1042 35.4023C67.9592 35.2603 68.0559 35 68.2734 35H70.2832C70.4282 35 70.5007 35.0237 70.6216 35.142L75.5392 39.7917L70.6216 44.4413C70.5007 44.5597 70.4282 44.5833 70.2832 44.5833H68.2734C68.0559 44.5833 67.9592 44.323 68.1042 44.181L72.8526 39.7935L68.1042 35.4023Z" fill="#080831"/>
<path d="M68.1042 51.4023C67.9592 51.2603 68.0559 51 68.2734 51H70.2832C70.4282 51 70.5007 51.0237 70.6216 51.142L75.5392 55.7917L70.6216 60.4413C70.5007 60.5597 70.4282 60.5833 70.2832 60.5833H68.2734C68.0559 60.5833 67.9592 60.323 68.1042 60.181L72.8526 55.7935L68.1042 51.4023Z" fill="#080831"/>
<path d="M68.1042 67.4023C67.9592 67.2603 68.0559 67 68.2734 67H70.2832C70.4282 67 70.5007 67.0237 70.6216 67.142L75.5392 71.7917L70.6216 76.4413C70.5007 76.5597 70.4282 76.5833 70.2832 76.5833H68.2734C68.0559 76.5833 67.9592 76.323 68.1042 76.181L72.8526 71.7935L68.1042 67.4023Z" fill="#080831"/>
<path d="M68.1042 83.4023C67.9592 83.2603 68.0559 83 68.2734 83H70.2832C70.4282 83 70.5007 83.0237 70.6216 83.142L75.5392 87.7917L70.6216 92.4413C70.5007 92.5597 70.4282 92.5833 70.2832 92.5833H68.2734C68.0559 92.5833 67.9592 92.323 68.1042 92.181L72.8526 87.7935L68.1042 83.4023Z" fill="#080831"/>
<path d="M68.1042 99.4023C67.9592 99.2603 68.0559 99 68.2734 99H70.2832C70.4282 99 70.5007 99.0237 70.6216 99.142L75.5392 103.792L70.6216 108.441C70.5007 108.56 70.4282 108.583 70.2832 108.583H68.2734C68.0559 108.583 67.9592 108.323 68.1042 108.181L72.8526 103.793L68.1042 99.4023Z" fill="#080831"/>
<path d="M84.1124 19.4023C83.9674 19.2603 84.0641 19 84.2816 19H86.2914C86.4364 19 86.5089 19.0237 86.6298 19.142L91.5474 23.7917L86.6298 28.4413C86.5089 28.5597 86.4364 28.5833 86.2914 28.5833H84.2816C84.0641 28.5833 83.9674 28.323 84.1124 28.181L88.8608 23.7935L84.1124 19.4023Z" fill="#080831"/>
<path d="M84.1124 35.4023C83.9674 35.2603 84.0641 35 84.2816 35H86.2914C86.4364 35 86.5089 35.0237 86.6298 35.142L91.5474 39.7917L86.6298 44.4413C86.5089 44.5597 86.4364 44.5833 86.2914 44.5833H84.2816C84.0641 44.5833 83.9674 44.323 84.1124 44.181L88.8608 39.7935L84.1124 35.4023Z" fill="#080831"/>
<path d="M84.1124 51.4023C83.9674 51.2603 84.0641 51 84.2816 51H86.2914C86.4364 51 86.5089 51.0237 86.6298 51.142L91.5474 55.7917L86.6298 60.4413C86.5089 60.5597 86.4364 60.5833 86.2914 60.5833H84.2816C84.0641 60.5833 83.9674 60.323 84.1124 60.181L88.8608 55.7935L84.1124 51.4023Z" fill="#080831"/>
<path d="M84.1124 67.4023C83.9674 67.2603 84.0641 67 84.2816 67H86.2914C86.4364 67 86.5089 67.0237 86.6298 67.142L91.5474 71.7917L86.6298 76.4413C86.5089 76.5597 86.4364 76.5833 86.2914 76.5833H84.2816C84.0641 76.5833 83.9674 76.323 84.1124 76.181L88.8608 71.7935L84.1124 67.4023Z" fill="#080831"/>
<path d="M84.1124 83.4023C83.9674 83.2603 84.0641 83 84.2816 83H86.2914C86.4364 83 86.5089 83.0237 86.6298 83.142L91.5474 87.7917L86.6298 92.4413C86.5089 92.5597 86.4364 92.5833 86.2914 92.5833H84.2816C84.0641 92.5833 83.9674 92.323 84.1124 92.181L88.8608 87.7935L84.1124 83.4023Z" fill="#080831"/>
<path d="M100.121 35.4023C99.9758 35.2603 100.072 35 100.29 35H102.3C102.445 35 102.517 35.0237 102.638 35.142L107.556 39.7917L102.638 44.4413C102.517 44.5597 102.445 44.5833 102.3 44.5833H100.29C100.072 44.5833 99.9758 44.323 100.121 44.181L104.869 39.7935L100.121 35.4023Z" fill="#080831"/>
<path d="M100.121 51.4023C99.9758 51.2603 100.072 51 100.29 51H102.3C102.445 51 102.517 51.0237 102.638 51.142L107.556 55.7917L102.638 60.4413C102.517 60.5597 102.445 60.5833 102.3 60.5833H100.29C100.072 60.5833 99.9758 60.323 100.121 60.181L104.869 55.7935L100.121 51.4023Z" fill="#080831"/>
<path d="M100.121 67.4023C99.9758 67.2603 100.072 67 100.29 67H102.3C102.445 67 102.517 67.0237 102.638 67.142L107.556 71.7917L102.638 76.4413C102.517 76.5597 102.445 76.5833 102.3 76.5833H100.29C100.072 76.5833 99.9758 76.323 100.121 76.181L104.869 71.7935L100.121 67.4023Z" fill="#080831"/>
<path d="M136.071 156.402C135.926 156.26 136.023 156 136.24 156H138.25C138.395 156 138.468 156.024 138.588 156.142L143.506 160.792L138.588 165.441C138.468 165.56 138.395 165.583 138.25 165.583H136.24C136.023 165.583 135.926 165.323 136.071 165.181L140.819 160.793L136.071 156.402Z" fill="#080831"/>
<path d="M136.071 172.402C135.926 172.26 136.023 172 136.24 172H138.25C138.395 172 138.468 172.024 138.588 172.142L143.506 176.792L138.588 181.441C138.468 181.56 138.395 181.583 138.25 181.583H136.24C136.023 181.583 135.926 181.323 136.071 181.181L140.819 176.793L136.071 172.402Z" fill="#080831"/>
<path d="M136.071 188.402C135.926 188.26 136.023 188 136.24 188H138.25C138.395 188 138.468 188.024 138.588 188.142L143.506 192.792L138.588 197.441C138.468 197.56 138.395 197.583 138.25 197.583H136.24C136.023 197.583 135.926 197.323 136.071 197.181L140.819 192.793L136.071 188.402Z" fill="#080831"/>
<path d="M152.079 140.402C151.934 140.26 152.031 140 152.249 140H154.258C154.403 140 154.476 140.024 154.597 140.142L159.514 144.792L154.597 149.441C154.476 149.56 154.403 149.583 154.258 149.583H152.249C152.031 149.583 151.934 149.323 152.079 149.181L156.828 144.793L152.079 140.402Z" fill="#080831"/>
<path d="M152.079 156.402C151.934 156.26 152.031 156 152.249 156H154.258C154.403 156 154.476 156.024 154.597 156.142L159.514 160.792L154.597 165.441C154.476 165.56 154.403 165.583 154.258 165.583H152.249C152.031 165.583 151.934 165.323 152.079 165.181L156.828 160.793L152.079 156.402Z" fill="#080831"/>
<path d="M152.079 172.402C151.934 172.26 152.031 172 152.249 172H154.258C154.403 172 154.476 172.024 154.597 172.142L159.514 176.792L154.597 181.441C154.476 181.56 154.403 181.583 154.258 181.583H152.249C152.031 181.583 151.934 181.323 152.079 181.181L156.828 176.793L152.079 172.402Z" fill="#080831"/>
<path d="M152.079 188.402C151.934 188.26 152.031 188 152.249 188H154.258C154.403 188 154.476 188.024 154.597 188.142L159.514 192.792L154.597 197.441C154.476 197.56 154.403 197.583 154.258 197.583H152.249C152.031 197.583 151.934 197.323 152.079 197.181L156.828 192.793L152.079 188.402Z" fill="#080831"/>
<path d="M152.079 204.402C151.934 204.26 152.031 204 152.249 204H154.258C154.403 204 154.476 204.024 154.597 204.142L159.514 208.792L154.597 213.441C154.476 213.56 154.403 213.583 154.258 213.583H152.249C152.031 213.583 151.934 213.323 152.079 213.181L156.828 208.793L152.079 204.402Z" fill="#080831"/>
<path d="M168.088 124.402C167.943 124.26 168.039 124 168.257 124H170.267C170.412 124 170.484 124.024 170.605 124.142L175.523 128.792L170.605 133.441C170.484 133.56 170.412 133.583 170.267 133.583H168.257C168.039 133.583 167.943 133.323 168.088 133.181L172.836 128.793L168.088 124.402Z" fill="#080831"/>
<path d="M168.088 140.402C167.943 140.26 168.039 140 168.257 140H170.267C170.412 140 170.484 140.024 170.605 140.142L175.523 144.792L170.605 149.441C170.484 149.56 170.412 149.583 170.267 149.583H168.257C168.039 149.583 167.943 149.323 168.088 149.181L172.836 144.793L168.088 140.402Z" fill="#080831"/>
<path d="M168.088 156.402C167.943 156.26 168.039 156 168.257 156H170.267C170.412 156 170.484 156.024 170.605 156.142L175.523 160.792L170.605 165.441C170.484 165.56 170.412 165.583 170.267 165.583H168.257C168.039 165.583 167.943 165.323 168.088 165.181L172.836 160.793L168.088 156.402Z" fill="#080831"/>
<path d="M168.088 172.402C167.943 172.26 168.039 172 168.257 172H170.267C170.412 172 170.484 172.024 170.605 172.142L175.523 176.792L170.605 181.441C170.484 181.56 170.412 181.583 170.267 181.583H168.257C168.039 181.583 167.943 181.323 168.088 181.181L172.836 176.793L168.088 172.402Z" fill="#080831"/>
<path d="M168.088 188.402C167.943 188.26 168.039 188 168.257 188H170.267C170.412 188 170.484 188.024 170.605 188.142L175.523 192.792L170.605 197.441C170.484 197.56 170.412 197.583 170.267 197.583H168.257C168.039 197.583 167.943 197.323 168.088 197.181L172.836 192.793L168.088 188.402Z" fill="#080831"/>
<path d="M168.088 204.402C167.943 204.26 168.039 204 168.257 204H170.267C170.412 204 170.484 204.024 170.605 204.142L175.523 208.792L170.605 213.441C170.484 213.56 170.412 213.583 170.267 213.583H168.257C168.039 213.583 167.943 213.323 168.088 213.181L172.836 208.793L168.088 204.402Z" fill="#080831"/>
<path d="M168.088 220.402C167.943 220.26 168.039 220 168.257 220H170.267C170.412 220 170.484 220.024 170.605 220.142L175.523 224.792L170.605 229.441C170.484 229.56 170.412 229.583 170.267 229.583H168.257C168.039 229.583 167.943 229.323 168.088 229.181L172.836 224.793L168.088 220.402Z" fill="#080831"/>
<path d="M184.096 124.402C183.951 124.26 184.048 124 184.265 124H186.275C186.42 124 186.493 124.024 186.613 124.142L191.531 128.792L186.613 133.441C186.493 133.56 186.42 133.583 186.275 133.583H184.265C184.048 133.583 183.951 133.323 184.096 133.181L188.844 128.793L184.096 124.402Z" fill="#080831"/>
<path d="M184.096 140.402C183.951 140.26 184.048 140 184.265 140H186.275C186.42 140 186.493 140.024 186.613 140.142L191.531 144.792L186.613 149.441C186.493 149.56 186.42 149.583 186.275 149.583H184.265C184.048 149.583 183.951 149.323 184.096 149.181L188.844 144.793L184.096 140.402Z" fill="#080831"/>
<path d="M184.096 156.402C183.951 156.26 184.048 156 184.265 156H186.275C186.42 156 186.493 156.024 186.613 156.142L191.531 160.792L186.613 165.441C186.493 165.56 186.42 165.583 186.275 165.583H184.265C184.048 165.583 183.951 165.323 184.096 165.181L188.844 160.793L184.096 156.402Z" fill="#080831"/>
<path d="M184.096 172.402C183.951 172.26 184.048 172 184.265 172H186.275C186.42 172 186.493 172.024 186.613 172.142L191.531 176.792L186.613 181.441C186.493 181.56 186.42 181.583 186.275 181.583H184.265C184.048 181.583 183.951 181.323 184.096 181.181L188.844 176.793L184.096 172.402Z" fill="#080831"/>
<path d="M184.096 188.402C183.951 188.26 184.048 188 184.265 188H186.275C186.42 188 186.493 188.024 186.613 188.142L191.531 192.792L186.613 197.441C186.493 197.56 186.42 197.583 186.275 197.583H184.265C184.048 197.583 183.951 197.323 184.096 197.181L188.844 192.793L184.096 188.402Z" fill="#080831"/>
<path d="M184.096 204.402C183.951 204.26 184.048 204 184.265 204H186.275C186.42 204 186.493 204.024 186.613 204.142L191.531 208.792L186.613 213.441C186.493 213.56 186.42 213.583 186.275 213.583H184.265C184.048 213.583 183.951 213.323 184.096 213.181L188.844 208.793L184.096 204.402Z" fill="#080831"/>
<path d="M184.096 220.402C183.951 220.26 184.048 220 184.265 220H186.275C186.42 220 186.493 220.024 186.613 220.142L191.531 224.792L186.613 229.441C186.493 229.56 186.42 229.583 186.275 229.583H184.265C184.048 229.583 183.951 229.323 184.096 229.181L188.844 224.793L184.096 220.402Z" fill="#080831"/>
<path d="M200.104 124.402C199.959 124.26 200.056 124 200.274 124H202.283C202.428 124 202.501 124.024 202.622 124.142L207.539 128.792L202.622 133.441C202.501 133.56 202.428 133.583 202.283 133.583H200.274C200.056 133.583 199.959 133.323 200.104 133.181L204.853 128.793L200.104 124.402Z" fill="#080831"/>
<path d="M200.104 140.402C199.959 140.26 200.056 140 200.274 140H202.283C202.428 140 202.501 140.024 202.622 140.142L207.539 144.792L202.622 149.441C202.501 149.56 202.428 149.583 202.283 149.583H200.274C200.056 149.583 199.959 149.323 200.104 149.181L204.853 144.793L200.104 140.402Z" fill="#080831"/>
<path d="M200.104 156.402C199.959 156.26 200.056 156 200.274 156H202.283C202.428 156 202.501 156.024 202.622 156.142L207.539 160.792L202.622 165.441C202.501 165.56 202.428 165.583 202.283 165.583H200.274C200.056 165.583 199.959 165.323 200.104 165.181L204.853 160.793L200.104 156.402Z" fill="#080831"/>
<path d="M200.104 172.402C199.959 172.26 200.056 172 200.274 172H202.283C202.428 172 202.501 172.024 202.622 172.142L207.539 176.792L202.622 181.441C202.501 181.56 202.428 181.583 202.283 181.583H200.274C200.056 181.583 199.959 181.323 200.104 181.181L204.853 176.793L200.104 172.402Z" fill="#080831"/>
<path d="M200.104 188.402C199.959 188.26 200.056 188 200.274 188H202.283C202.428 188 202.501 188.024 202.622 188.142L207.539 192.792L202.622 197.441C202.501 197.56 202.428 197.583 202.283 197.583H200.274C200.056 197.583 199.959 197.323 200.104 197.181L204.853 192.793L200.104 188.402Z" fill="#080831"/>
<path d="M200.104 204.402C199.959 204.26 200.056 204 200.274 204H202.283C202.428 204 202.501 204.024 202.622 204.142L207.539 208.792L202.622 213.441C202.501 213.56 202.428 213.583 202.283 213.583H200.274C200.056 213.583 199.959 213.323 200.104 213.181L204.853 208.793L200.104 204.402Z" fill="#080831"/>
<path d="M200.104 220.402C199.959 220.26 200.056 220 200.274 220H202.283C202.428 220 202.501 220.024 202.622 220.142L207.539 224.792L202.622 229.441C202.501 229.56 202.428 229.583 202.283 229.583H200.274C200.056 229.583 199.959 229.323 200.104 229.181L204.853 224.793L200.104 220.402Z" fill="#080831"/>
<path d="M216.113 140.402C215.968 140.26 216.064 140 216.282 140H218.292C218.437 140 218.509 140.024 218.63 140.142L223.547 144.792L218.63 149.441C218.509 149.56 218.437 149.583 218.292 149.583H216.282C216.064 149.583 215.968 149.323 216.113 149.181L220.861 144.793L216.113 140.402Z" fill="#080831"/>
<path d="M216.113 156.402C215.968 156.26 216.064 156 216.282 156H218.292C218.437 156 218.509 156.024 218.63 156.142L223.547 160.792L218.63 165.441C218.509 165.56 218.437 165.583 218.292 165.583H216.282C216.064 165.583 215.968 165.323 216.113 165.181L220.861 160.793L216.113 156.402Z" fill="#080831"/>
<path d="M216.113 172.402C215.968 172.26 216.064 172 216.282 172H218.292C218.437 172 218.509 172.024 218.63 172.142L223.547 176.792L218.63 181.441C218.509 181.56 218.437 181.583 218.292 181.583H216.282C216.064 181.583 215.968 181.323 216.113 181.181L220.861 176.793L216.113 172.402Z" fill="#080831"/>
<path d="M216.113 188.402C215.968 188.26 216.064 188 216.282 188H218.292C218.437 188 218.509 188.024 218.63 188.142L223.547 192.792L218.63 197.441C218.509 197.56 218.437 197.583 218.292 197.583H216.282C216.064 197.583 215.968 197.323 216.113 197.181L220.861 192.793L216.113 188.402Z" fill="#080831"/>
<path d="M216.113 204.402C215.968 204.26 216.064 204 216.282 204H218.292C218.437 204 218.509 204.024 218.63 204.142L223.547 208.792L218.63 213.441C218.509 213.56 218.437 213.583 218.292 213.583H216.282C216.064 213.583 215.968 213.323 216.113 213.181L220.861 208.793L216.113 204.402Z" fill="#080831"/>
<path d="M232.121 156.402C231.976 156.26 232.073 156 232.29 156H234.3C234.445 156 234.517 156.024 234.638 156.142L239.556 160.792L234.638 165.441C234.517 165.56 234.445 165.583 234.3 165.583H232.29C232.073 165.583 231.976 165.323 232.121 165.181L236.869 160.793L232.121 156.402Z" fill="#080831"/>
<path d="M232.121 172.402C231.976 172.26 232.073 172 232.29 172H234.3C234.445 172 234.517 172.024 234.638 172.142L239.556 176.792L234.638 181.441C234.517 181.56 234.445 181.583 234.3 181.583H232.29C232.073 181.583 231.976 181.323 232.121 181.181L236.869 176.793L232.121 172.402Z" fill="#080831"/>
<path d="M232.121 188.402C231.976 188.26 232.073 188 232.29 188H234.3C234.445 188 234.517 188.024 234.638 188.142L239.556 192.792L234.638 197.441C234.517 197.56 234.445 197.583 234.3 197.583H232.29C232.073 197.583 231.976 197.323 232.121 197.181L236.869 192.793L232.121 188.402Z" fill="#080831"/>
</svg>
