<svg id="Vrstva_1" data-name="Vrstva 1" xmlns="http://www.w3.org/2000/svg" viewBox="0 0 765.4224 159.0563">
  <path id="fullLogo" d="M321.946,125.4449c-4.4052,0-7.0075,2.6-7.0075,7.0031,0,4.4007,2.6023,7.0009,7.0075,7.0009s7.0075-2.6,7.0075-7.0009C328.9535,128.045,326.5505,125.4449,321.946,125.4449Zm443.4764,6.2013v5.8027c0,.6-.3987.9989-1.2.9989H753.41c-9.61,0-16.0171-6.4007-16.0171-16.004V74.0266H721.3753c-.8,0-1.0011-.2015-1.0011-1.2V67.0235c0-.8017.2015-1.2,1.0011-1.2h24.4265a1.1541,1.1541,0,0,1,1.2026,1.2v54.4193c0,5.8027,2.8017,9.003,8.6088,9.003h8.8081C765.0237,130.6452,765.4224,130.8467,765.4224,131.6462Zm-91.6976-6.6022c0-5.4018,3.2025-8.2035,10.21-8.2035h11.2133v11.8047a27.3339,27.3339,0,0,1-12.6152,3.2026C676.5265,131.8478,673.7248,129.0461,673.7248,125.044Zm13.0139-26.81c5.8049,0,8.6088,3.0011,8.6088,9.0031V109.84H684.3357c-13.2133,0-20.2208,5.4019-20.2208,15.6054,0,8.0019,5.8049,13.6053,16.6174,13.6053a25.98,25.98,0,0,0,15.6162-5.0031l.8018,3.2025c.3986.8.6,1.2,1.4,1.2h5.0075a1.0617,1.0617,0,0,0,1.2005-1.2V106.2383c0-9.8048-6.4073-16.2077-16.2187-16.2077h-19.02a1.0616,1.0616,0,0,0-1.2,1.2v5.8027a1.0607,1.0607,0,0,0,1.2,1.2Zm-63.269,0v23.408c0,5.8027,2.8017,8.8037,8.6088,8.8037H643.09c.6,0,1.001.4009,1.001,1.2v5.8027a.9462.9462,0,0,1-1.001,1.0011h-13.014c-9.8113,0-16.0171-6.2036-16.0171-16.0062v-24.21H599.6434c-.8,0-1.0011-.3986-1.0011-.9988V91.4326c0-.8.4009-1.2,1.0011-1.2h14.4158V74.226c0-.8.4009-1.0011,1.0011-1.0011h7.2068c.8018,0,1.2026.4009,1.2026,1.0011V90.2321H643.09c.6,0,1.001.4009,1.001,1.2v5.8027c0,.8-.4008.9988-1.001.9988ZM543.785,137.4489c0,.6.4008,1.0011,1.2026,1.0011h40.643c.8017,0,1.2-.1993,1.2-1.0011v-5.8c0-.8017-.3987-1.001-1.2-1.001H571.2147V91.4326c0-.8-.1993-1.2-1.001-1.2H544.9876a1.1542,1.1542,0,0,0-1.2026,1.2v5.8027c0,.6.4008,1.001,1.2026,1.001h17.0182v32.4111H544.9876c-.8018,0-1.2026.1993-1.2026,1.001Zm-41.4448-6.002a26.1082,26.1082,0,0,0,10.8124-3.001v-28.01a20.9916,20.9916,0,0,0-10.4115-3.001c-8.0086,0-12.0129,6.002-12.0129,17.2066C490.5267,126.8446,494.7325,131.4469,502.34,131.4469ZM500.54,89.6319c4.8038,0,9.209,1.6013,13.6141,5.2025l1.0011-3.2025a1.3233,1.3233,0,0,1,1.4019-1.2h5.0054c.6,0,1.001.4009,1.001,1.2v51.42c0,9.8026-6.4073,16.004-16.2186,16.004h-19.22a1.0614,1.0614,0,0,1-1.2026-1.2v-5.6012c0-.8.4009-1.0011,1.2026-1.0011h17.2175c5.8071,0,8.6088-3.2,8.6088-9.003v-7.4018a23.9378,23.9378,0,0,1-13.4126,4.2014c-13.4148,0-18.821-9.2046-18.821-24.6084C480.7175,99.4346,486.5224,89.6319,500.54,89.6319Zm-77.8864,47.817c0,.6.4009,1.0011,1.2,1.0011h40.6452c.8,0,1.2-.1993,1.2-1.0011v-5.8c0-.8017-.4009-1.001-1.2-1.001H450.083V91.4326c0-.8-.1993-1.2-1.0011-1.2H423.8537a1.1537,1.1537,0,0,0-1.2,1.2v5.8027c0,.6.4009,1.001,1.2,1.001h17.02v32.4111h-17.02c-.8,0-1.2.1993-1.2,1.001Zm-40.4414-6.002a25.35,25.35,0,0,0,10.81-3.001v-28.01a20.9838,20.9838,0,0,0-10.4094-3.001c-8.0107,0-12.015,6.002-12.015,17.2066C370.3982,126.8446,374.6041,131.4469,382.2118,131.4469Zm-1.8029-41.815a20.6272,20.6272,0,0,1,12.4138,4.2015V67.4244c0-.8017.4008-1.2,1.001-1.2h7.2069c.6024,0,1.001.3987,1.001,1.2v70.0245c0,.8-.3986,1.0011-1.001,1.0011h-5.0054c-.7995,0-1.0011-.4009-1.4-1.2l-1.0011-3.2025a23.7207,23.7207,0,0,1-14.4159,5.0031c-13.4147,0-18.821-9.2046-18.821-24.6084C360.5869,99.4346,366.394,89.6319,380.4089,89.6319Zm-106.1134,24.81c0,11.8026-3.805,17.406-12.0129,17.406-8.21,0-12.0128-5.6034-12.0128-17.406,0-11.8047,3.8027-17.4081,12.0128-17.4081C270.4905,97.0337,274.2955,102.6371,274.2955,114.4418Zm9.8092,0c0-14.6064-6.2058-24.81-21.8221-24.81s-21.8242,10.2035-21.8242,24.81c0,14.8036,6.208,24.8078,21.8242,24.8078S284.1047,129.2454,284.1047,114.4418ZM227.243,138.45H216.8314a1.501,1.501,0,0,1-.9069-.4009h-.0022c-.0854-.0591-.1818-.127-.2935-.1993l-24.4265-23.408v23.0071c0,.8-.1994,1.0011-1.0011,1.0011h-7.2068c-.8018,0-1.2005-.4009-1.2005-1.0011V67.4244a1.06,1.06,0,0,1,1.2005-1.2h7.2068c.8017,0,1.0011.3987,1.0011,1.2V112.24l23.8263-21.408c.2015-.4009.6-.4009,1.0011-.4009H225.44c1.0011,0,1.2,1.0011.6,1.6013l-24.225,21.408L227.8432,137.25C228.4434,137.4489,228.0425,138.45,227.243,138.45Zm-103.912-9.2046-1.6013,5.2025a2.4106,2.4106,0,0,0,.6,2c4.806,2.0021,9.8114,3.0032,18.42,3.0032,15.016,0,21.8242-5.404,21.8242-14.4071,0-9.5288-9.9122-12.0457-18.4968-14.2275-6.5563-1.6648-12.3371-3.1346-12.3371-7.38,0-3.8,2.6024-6.002,11.0118-6.002a42.697,42.697,0,0,1,15.0161,2.8017c.8017.3987,1.4019.1993,1.6012-.4009l1.6013-5.4018a1.0476,1.0476,0,0,0-.7995-1.6013,41.974,41.974,0,0,0-17.22-3.2c-14.2143,0-20.6216,5.4019-20.6216,14.4049,0,9.5288,9.9122,12.0479,18.4946,14.2275,6.5563,1.667,12.3393,3.1347,12.3393,7.38,0,3.6012-2.6024,5.8027-12.2144,5.8027a41.0764,41.0764,0,0,1-16.0171-2.8017C124.3321,128.4459,123.53,128.4459,123.331,129.2454ZM82.6858,96.8344c-7.2068,0-11.8113,4.4008-12.4137,14.0062H93.6976C93.8991,102.2362,90.6944,96.8344,82.6858,96.8344ZM103.5089,113.64v2.8017c0,.7995-.4008,1.2-1.001,1.2H70.2721c.8017,9.0031,5.6077,13.6054,14.015,13.6054a33.7993,33.7993,0,0,0,14.4158-3.0011,1.06,1.06,0,0,1,1.6013.6l1.6035,5.2c.1993.6.1993,1.2-.8018,1.6012A37.05,37.05,0,0,1,83.8884,139.25c-14.4159,0-23.627-9.2024-23.627-24.8078,0-14.6064,7.209-24.81,22.6259-24.81C98.302,89.6319,103.5089,99.0359,103.5089,113.64ZM41.6441,93.2332a41.3853,41.3853,0,0,0-17.6184-3.6013C9.8092,89.6319.1993,98.8343,0,114.6412c0,15.406,9.61,24.81,23.8242,24.81,6.6066,0,11.8135-.8018,17.6184-3.6034.8017-.3987,1.2026-.9989.8017-1.5991l-1.6013-5.2025a1.1881,1.1881,0,0,0-1.8028-.6,37.0267,37.0267,0,0,1-14.4158,2.8017c-9.4083,0-14.6152-5.8027-14.6152-16.8058,0-10.8058,5.2069-16.6063,14.6152-16.6063a33.143,33.143,0,0,1,14.4158,2.8,1.1871,1.1871,0,0,0,1.8028-.6l1.6013-5.2C42.6452,94.0327,42.4436,93.634,41.6441,93.2332Zm516.3552-57.221c0-4.4007,2.6023-7.0031,7.0075-7.0031,4.6045,0,7.0075,2.6024,7.0075,7.0031s-2.6024,7.0032-7.0075,7.0032S557.9993,40.413,557.9993,36.0122ZM444.0766,29.0091c-4.4052,0-7.0075,2.6024-7.0075,7.0031s2.4008,7.0032,7.0075,7.0032c4.4029,0,7.0075-2.6024,7.0075-7.0032S448.6811,29.0091,444.0766,29.0091ZM16.4158,42.0143c.8017,0,1.0011,0,1.8028-.8L38.4394,20.8078,18.2186.8a3.0045,3.0045,0,0,0-.8631-.7163A2.7108,2.7108,0,0,0,16.4158,0H7.6077A.9449.9449,0,0,0,6.806,1.5991L26.4265,21.2065,7.2068,40.413a.9872.9872,0,0,0,.8018,1.6013Z" style="fill: blue;fill-rule: evenodd"/>
</svg>
