<svg width="20" height="20" viewBox="0 0 20 20" fill="none" xmlns="http://www.w3.org/2000/svg">
<path fill-rule="evenodd" clip-rule="evenodd" d="M10 20C15.5228 20 20 15.5228 20 10C20 4.47715 15.5228 0 10 0C4.47715 0 0 4.47715 0 10C0 15.5228 4.47715 20 10 20ZM10.4583 5.5H6V14.5H10.6667C11.7593 14.5 12.588 14.2909 13.1528 13.8727C13.7176 13.4545 14 12.8545 14 12.0727C14 11.5091 13.8194 11.0409 13.4583 10.6682C13.1065 10.2864 12.588 10.05 11.9028 9.95909V9.94546C12.5139 9.85455 12.9769 9.62727 13.2917 9.26364C13.6065 8.9 13.7639 8.45455 13.7639 7.92727C13.7639 6.31818 12.662 5.50909 10.4583 5.5ZM11.3194 8.2C11.3194 8.85455 10.8889 9.18182 10.0278 9.18182H8.30556V7.21818H10.0278C10.8889 7.21818 11.3194 7.54545 11.3194 8.2ZM11.2222 12.5909C11.0093 12.7636 10.6898 12.85 10.2639 12.85H8.30556V10.8591H10.2639C10.6898 10.8591 11.0093 10.9455 11.2222 11.1182C11.4444 11.2818 11.5556 11.5227 11.5556 11.8409C11.5556 12.1682 11.4444 12.4182 11.2222 12.5909Z" fill="black"/>
</svg>
