<svg xmlns="http://www.w3.org/2000/svg" width="20" height="20" viewBox="0 0 20 20">
  <path fill="#24211D" d="M139,533 C133.4775,533 129,537.4775 129,543 C129,548.5225 133.4775,553 139,553 C144.5225,553 149,548.5225 149,543 C149,537.4775 144.5225,533 139,533 Z M141.5,539.666667 L140.375,539.666667 C139.926667,539.666667 139.833333,539.850833 139.833333,540.315 L139.833333,541.333333 L141.5,541.333333 L141.325833,543 L139.833333,543 L139.833333,548.833333 L137.333333,548.833333 L137.333333,543 L135.666667,543 L135.666667,541.333333 L137.333333,541.333333 L137.333333,539.41 C137.333333,537.935833 138.109167,537.166667 139.8575,537.166667 L141.5,537.166667 L141.5,539.666667 Z" transform="translate(-129 -533)"/>
</svg>
