<svg xmlns="http://www.w3.org/2000/svg" width="20" height="20" viewBox="0 0 20 20">
  <path fill="#24211D" d="M10,0 C4.47833333,0 0,4.59069261 0,10.2528032 C0,14.7828333 2.865,18.6259257 6.83916667,19.9818589 C7.33833333,20.0766974 7.5,19.7588605 7.5,19.48887 L7.5,17.5801398 C4.71833333,18.2004344 4.13916667,16.370309 4.13916667,16.370309 C3.68416667,15.1852559 3.02833333,14.8699822 3.02833333,14.8699822 C2.12083333,14.233454 3.0975,14.2471244 3.0975,14.2471244 C4.10166667,14.318894 4.63,15.3040175 4.63,15.3040175 C5.52166667,16.8709876 6.96916667,16.4181555 7.54,16.1558546 C7.62916667,15.4936944 7.88833333,15.0408622 8.175,14.7853965 C5.95416667,14.5248045 3.61916667,13.6456266 3.61916667,9.71794859 C3.61916667,8.59782984 4.01,7.68362156 4.64916667,6.96592534 C4.54583333,6.70704206 4.20333333,5.66381934 4.74666667,4.25235011 C4.74666667,4.25235011 5.58666667,3.97723322 7.4975,5.30326243 C8.295,5.07599196 9.15,4.96235673 10,4.95808473 C10.85,4.96235673 11.7058333,5.07599196 12.505,5.30326243 C14.4141667,3.97723322 15.2525,4.25235011 15.2525,4.25235011 C15.7966667,5.66467374 15.4541667,6.70789646 15.3508333,6.96592534 C15.9925,7.68362156 16.38,8.59868425 16.38,9.71794859 C16.38,13.6558794 14.0408333,14.5230957 11.8141667,14.7768525 C12.1725,15.0946894 12.5,15.7184016 12.5,16.6753299 L12.5,19.48887 C12.5,19.7614237 12.66,20.0818238 13.1675,19.9810045 C17.1383333,18.6233625 20,14.7811245 20,10.2528032 C20,4.59069261 15.5225,0 10,0 Z"/>
</svg>
