<svg xmlns="http://www.w3.org/2000/svg" width="134" height="27" viewBox="0 0 134 27">
  <g fill="#000000">
    <path d="M3.72624867 15C4.57271467 15 5.26761317 15.1370837 5.84305591 15.3582283 5.92783096 15.3918526 5.92783096 15.495312 5.89443473 15.5625606L5.60671336 16.2104753C5.57331713 16.2790171 5.48854208 16.2958293 5.40376703 16.262205 4.69217042 16.0229551 4.30297589 16.0061429 3.77762749 16.0061429 2.30433992 16.0061429 1.22024689 16.9786615 1.22024689 18.9909473 1.22024689 21.1739412 2.54196695 21.9757517 3.77762749 21.9757517 4.4545434 21.9757517 4.77694547 21.9072098 5.48854208 21.6692532 5.57331713 21.6356288 5.65809217 21.652441 5.6914884 21.7209829L5.97920978 22.3688975C6.01260601 22.4542515 6.01260601 22.5396056 5.92783096 22.5732299 5.31770751 22.8629163 4.58941279 23 3.72624867 23 1.30373747 23 0 21.3459425 0 18.9922405 0 16.6540575 1.27034124 15 3.72624867 15zM13.8136101 22.0103493C14.7900619 22.0103493 15.379565 21.8913325 16.1534624 21.5666235 16.2456595 21.5329884 16.3196967 21.5666235 16.3560168 21.6351876L16.6326083 22.2664942C16.6689284 22.3350582 16.6689284 22.4036223 16.5767312 22.4372574 15.6924766 22.8292367 14.9926162 23 13.8680902 23 11.3075234 23 10 21.5834411 10 19.0426908 10 16.3648124 11.5477949 15 13.6473758 15 15.7846737 15 17 16.2108668 17 18.7529107L17 19.1798189C17 19.2988357 16.9441229 19.3842173 16.7974456 19.3842173L11.3075234 19.3842173C11.3634005 21.0375162 12.3021353 22.0103493 13.8136101 22.0103493zM13.6655358 15.9366106C12.6346039 15.9366106 11.4737577 16.6015524 11.3075234 18.461837L15.7106366 18.461837C15.7106366 16.4825356 14.6797046 15.9366106 13.6655358 15.9366106zM21.2818313 21.6364812C21.3201114 21.5510996 21.4172841 21.534282 21.5335969 21.5679172 22.5436043 21.8745149 23.5138593 22.0116429 24.3295212 22.0116429 25.7076071 22.0116429 26.6395819 21.6196636 26.6395819 21.0051746 26.6395819 20.2199224 25.5721542 19.8447607 24.4075539 19.469599 22.9514353 18.992238 21.3392515 18.4967658 21.3392515 17.0297542 21.3392515 15.4605433 23.2812337 15 25.1260431 15 26.1934707 15 27.2226182 15.1371281 27.8056546 15.3065977 27.9028273 15.3402329 27.9411074 15.4256145 27.9028273 15.5109961L27.6702017 16.1759379C27.6319215 16.2781371 27.5538889 16.2949547 27.4567161 16.2781371 26.9134323 16.1410091 25.8651447 15.9715395 24.8934175 15.9715395 23.7479572 15.9715395 22.6996696 16.2108668 22.6996696 16.9948254 22.6996696 17.694696 23.7479572 18.0698577 24.9125576 18.4786546 26.3686761 18.9909444 28 19.5368693 28 20.8499353 28 22.5045278 26.1934707 23 24.3692737 23 23.048608 23 21.7294147 22.7606727 21.1066259 22.5058215 20.9903131 22.454075 20.9903131 22.3868047 21.0094532 22.3182406L21.2818313 21.6364812zM37.0478724 14.9149338C37.1551007 14.8248267 37.1917484 14.8070783 37.3342669 14.8070783L38.5151352 14.8070783C38.6223635 14.8070783 38.7295917 14.9695442 38.6047183 15.0773997L34.6847786 18.5342365 38.9440483 22.7296786C39.0512765 22.8375341 38.998341 23 38.83682 23L37.6016589 23C37.4767855 23 37.4048476 22.9645033 37.2976193 22.8552825L33.235161 18.7321991 33.235161 22.8375341C33.235161 22.9453896 33.1808683 23 33.07364 23L32.1615211 23C32.0542928 23 32 22.9453896 32 22.8375341L32 10.1624659C32 10.0546104 32.0542928 10 32.1615211 10L33.07364 10C33.1808683 10 33.235161 10.0532451 33.235161 10.1624659L33.235161 18.3908843 37.0478724 14.9149338zM45.5090081 23C42.8592358 23 42 21.3288601 42 18.9915926 42 16.654325 42.8592358 15 45.5090081 15 48.1587804 15 49 16.654325 49 18.9915926 49 21.3288601 48.1587804 23 45.5090081 23zM45.5090081 15.887308C44.0843397 15.887308 43.316571 16.9453517 43.316571 18.9915926 43.316571 21.0559418 44.0843397 22.112692 45.5090081 22.112692 46.9350624 22.112692 47.683429 21.0727567 47.683429 18.9915926 47.683429 16.9285368 46.9350624 15.887308 45.5090081 15.887308zM55 22.0084251C55 21.3758911 55.3620915 21 56 21 56.6379085 21 57 21.3758911 57 22.0084251 57 22.6409592 56.6379085 23 56 23 55.3620915 22.9987038 55 22.639663 55 22.0084251zM68.7123509 10.1608944C68.7123509 10.0540822 68.7689509 10 68.8793208 10L69.8316151 10C69.9434 10 70 10.0527301 70 10.1608944L70 22.7133645C70 22.8201768 69.9434 22.874259 69.8316151 22.874259L69.1962806 22.874259C69.1028906 22.874259 69.0661007 22.8391056 69.0462907 22.74987L68.8963008 22.1617265C68.0006064 22.74987 67.179907 23 66.3776026 23 64.1008692 23 63 21.449194 63 18.8275611 63 16.2424337 64.1574692 14.6375455 66.5827774 14.6375455 67.3666869 14.6375455 68.0756014 14.9052522 68.7109359 15.3514301L68.7109359 10.1608944 68.7123509 10.1608944zM66.7539923 21.9278211C67.4077219 21.9278211 68.1534263 21.7141966 68.7137659 21.374831L68.7137659 16.2573063C68.1350313 15.900364 67.4077219 15.6515861 66.7539923 15.6515861 65.2979584 15.6515861 64.347079 16.7386375 64.347079 18.8424337 64.345664 21.1084763 65.2979584 21.9278211 66.7539923 21.9278211zM121.837556 17.6154604C121.837556 16.5939603 121.331701 16.0044313 120.321269 16.0044313L117.862253 16.0044313C117.777943 16.0044313 117.710241 15.951912 117.710241 15.8665682L117.710241 15.1562449C117.710241 15.0525193 117.777943 15 117.862253 15L120.489887 15C122.0726 15 123 15.951912 123 17.5800098L123 22.7216478C123 22.8253734 122.948904 22.8778927 122.847988 22.8778927L122.27443 22.8778927C122.190121 22.8778927 122.156909 22.8437551 122.139025 22.7570983L122.003619 22.2030199C120.77475 22.7570983 120.08367 23 119.038748 23 117.724292 23 117 22.116363 117 20.800755 117 18.8956179 118.145838 18.3074019 120.150096 18.3074019L121.835001 18.3074019 121.835001 17.6154604 121.837556 17.6154604zM120.000639 19.2435582C118.821588 19.2435582 118.198212 19.6768423 118.198212 20.7154111 118.198212 21.459872 118.535448 22.0310192 119.276347 22.0310192 120.017245 22.0310192 120.893549 21.7710487 121.837556 21.4428032L121.837556 19.2435582 120.000639 19.2435582zM126.168645 11.0457887C126.056687 11.0457887 126 10.9911783 126 10.9010712L126 10.1624659C126 10.0546104 126.056687 10 126.168645 10L130.466962 10C130.578919 10 130.635607 10.0532451 130.635607 10.1624659L130.635607 20.2804033C130.635607 21.3425751 131.195394 21.9542113 132.317803 21.9542113L133.831355 21.9542113C133.943313 21.9542113 134 22.0088217 134 22.0989288L134 22.8375341C134 22.9453896 133.943313 23 133.831355 23L132.130735 23C130.373428 23 129.34597 22.0101869 129.34597 20.3172653L129.34597 11.0457887 126.168645 11.0457887zM90.832497 15.1266742L90.2151027 15.1266742C90.1029782 15.1266742 90.0646571 15.1620885 90.0462063 15.2519864L89.8957608 15.8444949C89.127921 15.2874007 88.3231794 15 87.499987 15 85.0673115 15 84 16.6167991 84 19.2211124 84 21.862202 85.0304098 23.4245176 87.3126398 23.4245176 88.0804796 23.4245176 88.9973456 23.1548241 89.7084135 22.6522134L89.7084135 23.3645857 89.7084135 24.2853575C89.7084135 25.3450624 89.127921 25.9566402 88.0052568 25.9566402L85.2745289 25.9566402C85.1624044 25.9566402 85.1056326 26.0111237 85.1056326 26.1010216L85.1056326 26.8379115C85.1056326 26.9455165 85.1624044 27 85.2745289 27L88.2110549 27C89.9709835 27 90.999974 26.0124858 90.999974 24.323496L90.999974 23.3659478 90.999974 16.2258797 90.999974 15.2887628C91.0013933 15.1811578 90.9446214 15.1266742 90.832497 15.1266742zM87.6688834 22.3471056C86.2098458 22.3471056 85.3483324 21.5203178 85.3483324 19.2401816 85.3483324 17.1207719 86.2098458 16.0256527 87.6688834 16.0256527 88.3245987 16.0256527 89.1477911 16.276277 89.7098328 16.6358683L89.7098328 21.7913734C89.166242 22.1318956 88.3245987 22.3471056 87.6688834 22.3471056zM73.170062 16.0211631C73.0581045 16.0211631 73.0014172 15.9678387 73.0014172 15.8625229L73.0014172 15.1586402C73.0014172 15.0533244 73.0581045 15 73.170062 15L77.7107174 15C77.8226749 15 77.8793623 15.0533244 77.8793623 15.1586402L77.8793623 21.8388602C77.8793623 21.944176 77.916209 21.98017 78.0097431 21.98017L80.8313552 21.98017C80.9433127 21.98017 81 22.0334944 81 22.1388102L81 22.8413598C81 22.9466756 80.9433127 23 80.8313552 23L73.1686448 23C73.0566873 23 73 22.9466756 73 22.8413598L73 22.1388102C73 22.0334944 73.0566873 21.98017 73.1686448 21.98017L76.4579274 21.98017C76.5514615 21.98017 76.5883082 21.9455091 76.5883082 21.8388602L76.5883082 16.01983 73.170062 16.01983 73.170062 16.0211631zM77 6.00842515C77 5.37589112 77.3620915 5 78 5 78.6379085 5 79 5.37589112 79 6.00842515 79 6.64095917 78.6379085 7 78 7 77.3620915 7 77 6.64095917 77 6.00842515zM95.170062 16.0211631C95.0581045 16.0211631 95.0014172 15.9678387 95.0014172 15.8625229L95.0014172 15.1586402C95.0014172 15.0533244 95.0581045 15 95.170062 15L99.7107174 15C99.8226749 15 99.8793623 15.0533244 99.8793623 15.1586402L99.8793623 21.8388602C99.8793623 21.944176 99.916209 21.98017 100.009743 21.98017L102.831355 21.98017C102.943313 21.98017 103 22.0334944 103 22.1388102L103 22.8413598C103 22.9466756 102.943313 23 102.831355 23L95.1686448 23C95.0566873 23 95 22.9466756 95 22.8413598L95 22.1388102C95 22.0334944 95.0566873 21.98017 95.1686448 21.98017L98.4579274 21.98017C98.5514615 21.98017 98.5883082 21.9455091 98.5883082 21.8388602L98.5883082 16.01983 95.170062 16.01983 95.170062 16.0211631zM98 6.00842515C98 5.37589112 98.3620915 5 99 5 99.6379085 5 100 5.37589112 100 6.00842515 100 6.64095917 99.6379085 7 99 7 98.3620915 7 98 6.64095917 98 6.00842515zM109 15.9757258L112.831325 15.9757258C112.943303 15.9757258 113 15.9220542 113 15.8348378L113 15.108929C113 15.0029275 112.943303 14.9492559 112.831325 14.9492559L109 14.9492559 109 12.5259819 109 12.1596731C109 12.0536716 108.943303 12 108.831325 12L107.877392 12C107.765415 12 107.710135 12.0523298 107.710135 12.1596731L107.710135 12.3663089 107.710135 14.9492559 105.168675 14.9492559C105.056697 14.9492559 105 15.0029275 105 15.108929L105 15.8348378C105 15.923396 105.056697 15.9757258 105.168675 15.9757258L107.710135 15.9757258 107.710135 17.3081239 107.710135 20.3633813C107.710135 22.0272018 108.739192 23 110.495393 23L112.831325 23C112.943303 23 113 22.9463284 113 22.8403269L113 22.1144182C113 22.02586 112.943303 21.9721883 112.831325 21.9721883L110.700921 21.9721883C109.579731 21.9721883 109 21.3710661 109 20.327153L109 17.6019761 109 15.9757258zM4.50001385 4L1.04855319.296296296C.949051619.197037037 1.01497141 0 1.14805476 0L2.23262185 0C2.29978541 0 2.33958604.0162962963 2.38187421.0592592593L6 4 2.38187421 7.94074074C2.33958604 7.9837037 2.29854164 8 2.23262185 8L1.14805476 8C1.01497141 8 .947807849 7.80148148 1.04855319 7.7037037L4.50001385 4z"/>
  </g>
</svg>
