<svg xmlns="http://www.w3.org/2000/svg" width="135" height="27" viewBox="0 0 135 27">
  <g fill="#000000">
    <path d="M3.9438806 15.0568657C4.80089552 15.0568657 5.5719403 15.2314925 6.21940299 15.4947761 6.3241791 15.5471642 6.3241791 15.6519403 6.28925373 15.721791L5.90373134 16.7023881C5.85134328 16.7897015 5.76402985 16.8071642 5.65925373 16.7722388 4.99432836 16.5452239 4.5738806 16.4928358 4.0661194 16.4928358 2.71880597 16.4928358 1.75567164 17.3673134 1.75567164 19.2062687 1.75567164 21.1661194 2.89343284 21.9197015 4.0661194 21.9197015 4.6961194 21.9197015 5.09910448 21.8149254 5.74656716 21.5691045 5.8338806 21.5341791 5.9561194 21.5516418 5.99104478 21.6389552L6.37656716 22.6020896C6.41149254 22.7068657 6.39402985 22.7941791 6.30671642 22.8465672 5.67671642 23.1622388 4.83716418 23.3543284 3.90895522 23.3543284 1.58104478 23.3543284.00537313433 21.8659701.00537313433 19.2062687.00671641791 16.631194 1.52865672 15.0568657 3.9438806 15.0568657zM14.2186567 21.9519403C15.058209 21.9519403 15.7070149 21.7773134 16.3195522 21.4965672 16.4243284 21.4616418 16.5116418 21.4965672 16.5465672 21.5664179L16.9146269 22.5470149C16.9495522 22.6343284 16.9320896 22.7041791 16.8273134 22.7391045 16.0226866 23.1595522 15.2691045 23.3516418 14.22 23.3516418 11.8571642 23.3516418 10.4574627 21.8995522 10.4574627 19.3083582 10.4574627 16.6486567 11.8571642 15.0555224 14.0279104 15.0555224 16.1113433 15.0555224 17.3001493 16.4028358 17.3001493 19.0289552L17.3001493 19.5541791C17.3001493 19.6764179 17.2477612 19.7462687 17.1080597 19.7462687L12.1701493 19.7462687C12.2238806 21.1822388 13.0285075 21.9519403 14.2186567 21.9519403zM14.0091045 16.3343284C13.1695522 16.3343284 12.2762687 16.9643284 12.1540299 18.5923881L15.6371642 18.5923881C15.6358209 16.8595522 14.831194 16.3343284 14.0091045 16.3343284zM21.6577612 21.6550746C21.6926866 21.5502985 21.78 21.5328358 21.8847761 21.5677612 22.8129851 21.8471642 23.7223881 21.988209 24.5270149 21.988209 25.6123881 21.988209 26.3122388 21.6725373 26.3122388 21.131194 26.3122388 20.4662687 25.4377612 20.150597 24.4222388 19.818806 23.0923881 19.3634328 21.5516418 18.8556716 21.5516418 17.3162687 21.5516418 15.740597 23.2146269 15.058209 25.1046269 15.058209 26.0677612 15.058209 27.0120896 15.1804478 27.729403 15.408806 27.8341791 15.4437313 27.8691045 15.5310448 27.8341791 15.6358209L27.5547761 16.5989552C27.5198507 16.721194 27.4325373 16.7561194 27.3102985 16.721194 26.8549254 16.5989552 25.8219403 16.4055224 24.93 16.4055224 24.0555224 16.4055224 23.2495522 16.6150746 23.2495522 17.2625373 23.2495522 17.8576119 24.1065672 18.1907463 25.1046269 18.5574627 26.4344776 19.0477612 27.9926866 19.6079104 27.9926866 21.0076119 27.9926866 22.7404478 26.3646269 23.3529851 24.5444776 23.3529851 23.3543284 23.3529851 22.1816418 23.1259701 21.4468657 22.8452239 21.3420896 22.8102985 21.3420896 22.7404478 21.3595522 22.6531343L21.6577612 21.6550746zM36.9738806 15.3013433C37.0786567 15.1965672 37.1310448 15.1791045 37.2707463 15.1791045L38.8638806 15.1791045C38.9861194 15.1791045 39.0734328 15.3362687 38.9686567 15.4410448L35.6077612 18.9241791 39.2480597 22.9674627C39.3353731 23.0722388 39.2829851 23.229403 39.1432836 23.229403L37.4453731 23.229403C37.3231343 23.229403 37.2532836 23.1944776 37.1471642 23.0897015L33.8749254 19.3620896 33.8749254 23.0547761C33.8749254 23.1595522 33.8225373 23.229403 33.7002985 23.229403L32.3879104 23.229403C32.2656716 23.229403 32.1958209 23.1595522 32.1958209 23.0547761L32.1958209 10.7677612C32.1958209 10.6629851 32.2656716 10.5931343 32.3879104 10.5931343L33.7002985 10.5931343C33.8225373 10.5931343 33.8749254 10.6629851 33.8749254 10.7677612L33.8749254 18.6085075 36.9738806 15.3013433zM46.1310448 23.3529851C43.5062687 23.3529851 42.6129851 21.7074627 42.6129851 19.2049254 42.6129851 16.6849254 43.5062687 15.0568657 46.1310448 15.0568657 48.7558209 15.0568657 49.6316418 16.6849254 49.6316418 19.2049254 49.6316418 21.7249254 48.7558209 23.3529851 46.1310448 23.3529851zM46.1310448 16.3343284C44.9758209 16.3343284 44.3632836 17.2625373 44.3632836 19.2049254 44.3632836 21.1647761 44.9758209 22.0929851 46.1310448 22.0929851 47.3037313 22.0929851 47.898806 21.1647761 47.898806 19.2049254 47.898806 17.2437313 47.3037313 16.3343284 46.1310448 16.3343284zM54.9980597 22.1279104C54.9980597 21.358209 55.4359701 20.8853731 56.2231343 20.8853731 57.0102985 20.8853731 57.448209 21.358209 57.448209 22.1279104 57.448209 22.9150746 57.0102985 23.3529851 56.2231343 23.3529851 55.4359701 23.3529851 54.9980597 22.9150746 54.9980597 22.1279104zM68.0977612 10.7691045C68.0977612 10.6643284 68.1676119 10.5944776 68.2723881 10.5944776L69.6022388 10.5944776C69.7070149 10.5944776 69.7768657 10.6643284 69.7768657 10.7691045L69.7768657 23.0561194C69.7768657 23.1608955 69.7070149 23.2307463 69.6022388 23.2307463L68.6565672 23.2307463C68.5692537 23.2307463 68.5168657 23.1958209 68.499403 23.0910448L68.3247761 22.4959701C67.4502985 23.1085075 66.7491045 23.3529851 65.9968657 23.3529851 64.0544776 23.3529851 63.0040299 21.8834328 63.0040299 19.2573134 63.0040299 16.578806 64.1592537 15.0568657 66.1889552 15.0568657 66.9062687 15.0568657 67.518806 15.318806 68.0964179 15.7392537L68.0977612 10.7691045zM66.5919403 21.969403C67.0822388 21.969403 67.6598507 21.7773134 68.0977612 21.4965672L68.0977612 16.9455224C67.6423881 16.6486567 67.0997015 16.4202985 66.5919403 16.4202985 65.5240299 16.4202985 64.7368657 17.2961194 64.7368657 19.2734328 64.7368657 21.2520896 65.4904478 21.969403 66.5919403 21.969403zM74.178806 16.578806C74.0740299 16.578806 74.0041791 16.5089552 74.0041791 16.4041791L74.0041791 15.371194C74.0041791 15.2489552 74.0740299 15.1791045 74.178806 15.1791045L78.6237313 15.1791045C78.7459701 15.1791045 78.8158209 15.2489552 78.8158209 15.371194L78.8158209 21.7423881C78.8158209 21.8297015 78.8332836 21.8646269 78.920597 21.8646269L81.3183582 21.8646269C81.4231343 21.8646269 81.4929851 21.9170149 81.4929851 22.0392537L81.4929851 23.0547761C81.4929851 23.1595522 81.4231343 23.229403 81.3183582 23.229403L74.1774627 23.229403C74.0726866 23.229403 74.0028358 23.1595522 74.0028358 23.0547761L74.0028358 22.0392537C74.0028358 21.9170149 74.0726866 21.8646269 74.1774627 21.8646269L77.0131343 21.8646269C77.0829851 21.8646269 77.1179104 21.8297015 77.1179104 21.7423881L77.1179104 16.578806 74.178806 16.578806zM96.0595522 16.578806C95.9547761 16.578806 95.8849254 16.5089552 95.8849254 16.4041791L95.8849254 15.371194C95.8849254 15.2489552 95.9547761 15.1791045 96.0595522 15.1791045L100.504478 15.1791045C100.626716 15.1791045 100.696567 15.2489552 100.696567 15.371194L100.696567 21.7423881C100.696567 21.8297015 100.71403 21.8646269 100.801343 21.8646269L103.199104 21.8646269C103.303881 21.8646269 103.373731 21.9170149 103.373731 22.0392537L103.373731 23.0547761C103.373731 23.1595522 103.303881 23.229403 103.199104 23.229403L96.058209 23.229403C95.9534328 23.229403 95.8835821 23.1595522 95.8835821 23.0547761L95.8835821 22.0392537C95.8835821 21.9170149 95.9534328 21.8646269 96.058209 21.8646269L98.8938806 21.8646269C98.9637313 21.8646269 98.9986567 21.8297015 98.9986567 21.7423881L98.9986567 16.578806 96.0595522 16.578806zM122.442985 17.9973134C122.442985 17.0341791 121.970149 16.5801493 120.990896 16.5801493L118.610597 16.5801493C118.505821 16.5801493 118.43597 16.5102985 118.43597 16.4229851L118.43597 15.3725373C118.43597 15.2502985 118.505821 15.1804478 118.610597 15.1804478L121.252836 15.1804478C123.177761 15.1804478 124.123433 16.1435821 124.123433 18.1383582L124.123433 23.0561194C124.123433 23.1608955 124.071045 23.2307463 123.966269 23.2307463L123.020597 23.2307463C122.933284 23.2307463 122.898358 23.1958209 122.863433 23.1085075L122.688806 22.5134328C121.58597 23.0910448 120.938507 23.3529851 119.870597 23.3529851 118.523284 23.3529851 117.699851 22.4422388 117.699851 21.1123881 117.699851 19.2747761 118.820149 18.54 121.078209 18.54L122.442985 18.54 122.442985 17.9973134zM121.076866 19.6952239C119.921642 19.6952239 119.396418 20.150597 119.396418 20.9726866 119.396418 21.6201493 119.71209 22.0755224 120.34209 22.0755224 120.954627 22.0755224 121.689403 21.8485075 122.441642 21.5502985L122.441642 19.6952239 121.076866 19.6952239zM127.019552 11.9941791C126.914776 11.9941791 126.844925 11.9243284 126.844925 11.8195522L126.844925 10.7691045C126.844925 10.6643284 126.914776 10.5944776 127.019552 10.5944776L131.254925 10.5944776C131.359701 10.5944776 131.429552 10.6468657 131.429552 10.7691045L131.429552 20.4125373C131.429552 21.3232836 131.884925 21.8297015 132.811791 21.8297015L134.159104 21.8297015C134.263881 21.8297015 134.333731 21.8995522 134.333731 22.0043284L134.333731 23.0547761C134.333731 23.1595522 134.263881 23.229403 134.159104 23.229403L132.548507 23.229403C130.763284 23.229403 129.730299 22.1789552 129.730299 20.4286567L129.730299 11.9928358 127.019552 11.9928358 127.019552 11.9941791zM91.269403 15.1791045L90.3586567 15.1791045C90.2364179 15.1791045 90.2014925 15.2314925 90.1840299 15.3013433L89.9744776 15.9138806C89.3095522 15.3537313 88.5747761 15.0568657 87.8037313 15.0568657 85.8089552 15.0568657 84.671194 16.5264179 84.671194 19.2573134 84.671194 22.0056716 85.7565672 23.3529851 87.6291045 23.3529851 88.3464179 23.3529851 89.1523881 23.0735821 89.7649254 22.618209L89.7649254 22.7914925 89.7649254 24.1347761C89.7649254 24.991791 89.3270149 25.4820896 88.4350746 25.4820896L85.931194 25.4820896C85.8264179 25.4820896 85.7565672 25.5519403 85.7565672 25.6567164L85.7565672 26.7071642C85.7565672 26.8119403 85.8264179 26.881791 85.931194 26.881791L88.8541791 26.881791C90.4997015 26.881791 91.4440299 25.9361194 91.4440299 24.2919403L91.4440299 15.3725373C91.4440299 15.2489552 91.3741791 15.1791045 91.269403 15.1791045zM88.2067164 21.969403C87.1213433 21.969403 86.4214925 21.2695522 86.4214925 19.2734328 86.4214925 17.3310448 87.1213433 16.4202985 88.2241791 16.4202985 88.7144776 16.4202985 89.3270149 16.6473134 89.7649254 16.9455224L89.7649254 21.4965672C89.3431343 21.7773134 88.7131343 21.969403 88.2067164 21.969403zM1.05044776.312985075C.945671642.208208955 1.01552239.016119403 1.17268657.016119403L2.62477612.016119403C2.72955224.016119403 2.7819403.0335820896 2.86925373.120895522L6.42223881 3.55164179 2.86925373 6.98238806C2.7819403 7.06970149 2.72955224 7.08716418 2.62477612 7.08716418L1.17268657 7.08716418C1.01552239 7.08716418.945671642 6.89507463 1.05044776 6.79029851L4.48119403 3.55298507 1.05044776.312985075zM113.385224 16.578806C113.49 16.578806 113.559851 16.5089552 113.559851 16.4216418L113.559851 15.371194C113.559851 15.2489552 113.49 15.1791045 113.385224 15.1791045L110.059254 15.1791045 110.059254 12.7477612 110.059254 12.4038806C110.059254 12.2991045 109.989403 12.2292537 109.90209 12.2292537L108.554776 12.2292537C108.432537 12.2292537 108.362687 12.2991045 108.362687 12.4038806L108.362687 12.7813433 108.362687 15.1791045 106.244328 15.1791045C106.139552 15.1791045 106.069701 15.2489552 106.069701 15.371194L106.069701 16.4216418C106.069701 16.5089552 106.139552 16.578806 106.244328 16.578806L108.362687 16.578806 108.362687 20.4286567C108.362687 22.2313433 109.44806 23.229403 111.180896 23.229403L113.386567 23.229403C113.491343 23.229403 113.561194 23.1595522 113.561194 23.0547761L113.561194 22.0043284C113.561194 21.8995522 113.491343 21.8297015 113.386567 21.8297015L111.461642 21.8297015C110.533433 21.8297015 110.06194 21.339403 110.06194 20.4125373L110.06194 16.5801493 113.385224 16.578806zM76.5416418 6.07298507C76.5416418 5.30328358 76.9795522 4.83044776 77.7667164 4.83044776 78.5538806 4.83044776 78.991791 5.30328358 78.991791 6.07298507 78.991791 6.86014925 78.5538806 7.2980597 77.7667164 7.2980597 76.9795522 7.2980597 76.5416418 6.86014925 76.5416418 6.07298507zM98.4223881 6.07298507C98.4223881 5.30328358 98.8602985 4.83044776 99.6474627 4.83044776 100.434627 4.83044776 100.872537 5.30328358 100.872537 6.07298507 100.872537 6.86014925 100.434627 7.2980597 99.6474627 7.2980597 98.8602985 7.2980597 98.4223881 6.86014925 98.4223881 6.07298507z"/>
  </g>
</svg>
