<?xml version="1.0" encoding="UTF-8"?>
<svg xmlns="http://www.w3.org/2000/svg" xmlns:xlink="http://www.w3.org/1999/xlink" width="15pt" height="15pt" viewBox="0 0 15 15" version="1.1">
<g id="surface1">
<path style=" stroke:none;fill-rule:evenodd;fill:rgb(0%,47.45098%,74.901961%);fill-opacity:1;" d="M 1.875 0 L 13.125 0 C 14.160156 0 15 0.839844 15 1.875 L 15 13.125 C 15 14.160156 14.160156 15 13.125 15 L 1.875 15 C 0.839844 15 0 14.160156 0 13.125 L 0 1.875 C 0 0.839844 0.839844 0 1.875 0 Z M 1.875 0 "/>
<path style=" stroke:none;fill-rule:evenodd;fill:rgb(100%,100%,100%);fill-opacity:1;" d="M 9.375 1.949219 L 12.148438 1.949219 C 12.648438 1.949219 13.050781 2.351562 13.050781 2.851562 L 13.050781 7.613281 C 13.050781 8.109375 12.648438 8.511719 12.148438 8.511719 L 9.375 8.511719 C 8.878906 8.511719 8.476562 8.109375 8.476562 7.613281 L 8.476562 2.851562 C 8.476562 2.351562 8.878906 1.949219 9.375 1.949219 Z M 9.375 1.949219 "/>
<path style=" stroke:none;fill-rule:evenodd;fill:rgb(100%,100%,100%);fill-opacity:1;" d="M 2.851562 1.949219 L 5.625 1.949219 C 6.121094 1.949219 6.523438 2.351562 6.523438 2.851562 L 6.523438 11.363281 C 6.523438 11.859375 6.121094 12.261719 5.625 12.261719 L 2.851562 12.261719 C 2.351562 12.261719 1.949219 11.859375 1.949219 11.363281 L 1.949219 2.851562 C 1.949219 2.351562 2.351562 1.949219 2.851562 1.949219 Z M 2.851562 1.949219 "/>
</g>
</svg>
