<svg xmlns="http://www.w3.org/2000/svg" width="20" height="20" viewBox="0 0 20 20">
  <path fill="#24211D" d="M10,0 C4.4775,0 0,4.4775 0,10 C0,15.5225 4.4775,20 10,20 C15.5225,20 20,15.5225 20,10 C20,4.4775 15.5225,0 10,0 Z M15.055,8.0375 C15.2075,11.4041667 12.6966667,15.1575 8.25166667,15.1575 C6.9,15.1575 5.6425,14.7608333 4.58333333,14.0816667 C5.85333333,14.2316667 7.12083333,13.8783333 8.12666667,13.0908333 C7.08,13.0716667 6.19583333,12.3791667 5.89,11.4283333 C6.26583333,11.5 6.63583333,11.4791667 6.97166667,11.3875 C5.82083333,11.1558333 5.02583333,10.1191667 5.05166667,9.01 C5.375,9.18916667 5.74333333,9.29666667 6.13583333,9.30916667 C5.07,8.59666667 4.76833333,7.18916667 5.395,6.11333333 C6.575,7.56166667 8.33916667,8.51416667 10.3283333,8.61416667 C9.97916667,7.1175 11.115,5.675 12.6608333,5.675 C13.3483333,5.675 13.9708333,5.96583333 14.4075,6.43083333 C14.9525,6.32416667 15.4658333,6.12416667 15.9275,5.85 C15.7483333,6.40916667 15.3691667,6.8775 14.875,7.17416667 C15.3591667,7.11583333 15.8208333,6.9875 16.2491667,6.79666667 C15.9291667,7.27833333 15.5241667,7.7 15.055,8.0375 Z"/>
</svg>
