<svg width="20" height="20" viewBox="0 0 20 20" fill="none" xmlns="http://www.w3.org/2000/svg">
<g clip-path="url(#clip0)">
<path fill-rule="evenodd" clip-rule="evenodd" d="M19.5422 5.61765C19.5422 5.68171 19.5198 5.73953 19.4769 5.79265C19.4322 5.84421 19.3858 5.87078 19.3325 5.87078C18.9045 5.90828 18.5522 6.03328 18.2806 6.24734C18.0073 6.45984 17.7272 6.86765 17.4367 7.46765L13.0023 16.552C12.9731 16.6364 12.8923 16.6786 12.7583 16.6786C12.6534 16.6786 12.5727 16.6364 12.5142 16.552L10.0272 11.8239L7.16719 16.552C7.10875 16.6364 7.02797 16.6786 6.92312 16.6786C6.79594 16.6786 6.71172 16.6364 6.67047 16.552L2.31344 7.46765C2.04188 6.90359 1.75484 6.50984 1.45234 6.2864C1.15156 6.06296 0.730469 5.9239 0.1925 5.87078C0.146094 5.87078 0.101406 5.8489 0.061875 5.80359C0.020625 5.75984 0 5.70828 0 5.65046C0 5.50203 0.0464062 5.42859 0.139219 5.42859C0.527656 5.42859 0.933281 5.44421 1.35781 5.47546C1.75141 5.50828 2.12266 5.5239 2.46984 5.5239C2.82391 5.5239 3.24156 5.50828 3.72281 5.47546C4.22641 5.44421 4.67328 5.42859 5.06172 5.42859C5.15453 5.42859 5.20094 5.50203 5.20094 5.65046C5.20094 5.79734 5.17172 5.87078 5.115 5.87078C4.72656 5.89734 4.42063 5.98796 4.19719 6.13953C3.97375 6.29265 3.86203 6.49265 3.86203 6.74109C3.86203 6.86765 3.90844 7.02546 4.00125 7.21453L7.60203 14.6067L9.64562 11.0973L7.74125 7.46765C7.39922 6.82078 7.11734 6.40203 6.89734 6.21453C6.67734 6.02859 6.34391 5.91296 5.89703 5.87078C5.85578 5.87078 5.81797 5.8489 5.78016 5.80359C5.74234 5.75984 5.72344 5.70828 5.72344 5.65046C5.72344 5.50203 5.76297 5.42859 5.84547 5.42859C6.23391 5.42859 6.58969 5.44421 6.91453 5.47546C7.22734 5.50828 7.56078 5.5239 7.91484 5.5239C8.26203 5.5239 8.62984 5.50828 9.01828 5.47546C9.41875 5.44421 9.81234 5.42859 10.2008 5.42859C10.2936 5.42859 10.34 5.50203 10.34 5.65046C10.34 5.79734 10.3125 5.87078 10.2541 5.87078C9.47719 5.91921 9.08875 6.11921 9.08875 6.47234C9.08875 6.63015 9.17812 6.87546 9.35859 7.20671L10.6184 9.53171L11.8714 7.40515C12.045 7.10515 12.1327 6.85203 12.1327 6.64578C12.1327 6.1614 11.7442 5.90359 10.9673 5.87078C10.8969 5.87078 10.8625 5.79734 10.8625 5.65046C10.8625 5.59734 10.8797 5.54734 10.9141 5.50046C10.9502 5.45203 10.9845 5.42859 11.0189 5.42859C11.2973 5.42859 11.6394 5.44421 12.045 5.47546C12.4334 5.50828 12.7531 5.5239 13.0023 5.5239C13.1811 5.5239 13.4458 5.50984 13.793 5.48328C14.233 5.44734 14.6025 5.42859 14.8981 5.42859C14.9669 5.42859 15.0012 5.49109 15.0012 5.61765C15.0012 5.7864 14.9377 5.87078 14.8105 5.87078C14.3584 5.91296 13.9941 6.02703 13.7191 6.2114C13.4441 6.39578 13.1003 6.81453 12.6895 7.46765L11.0189 10.2755L13.2808 14.4645L16.6203 7.40515C16.7355 7.14734 16.7939 6.90984 16.7939 6.69421C16.7939 6.17703 16.4055 5.90359 15.6286 5.87078C15.5581 5.87078 15.5237 5.79734 15.5237 5.65046C15.5237 5.50203 15.5753 5.42859 15.6802 5.42859C15.9637 5.42859 16.3006 5.44421 16.6891 5.47546C17.0483 5.50828 17.3508 5.5239 17.5931 5.5239C17.8492 5.5239 18.1448 5.50828 18.48 5.47546C18.8289 5.44421 19.1417 5.42859 19.4202 5.42859C19.5009 5.42859 19.5422 5.49109 19.5422 5.61765Z" fill="black"/>
</g>
<defs>
<clipPath id="clip0">
<rect width="20" height="20" fill="white"/>
</clipPath>
</defs>
</svg>
